<?xml version="1.0" encoding="UTF-8"?>
<svg id="Camada_1" data-name="Camada 1" xmlns="http://www.w3.org/2000/svg" viewBox="0 0 460.96 280.44">
  <defs>
    <style>
      .cls-1 {
        fill: #fefefe;
      }

      .cls-1, .cls-2, .cls-3, .cls-4, .cls-5, .cls-6, .cls-7, .cls-8, .cls-9 {
        stroke-width: 0px;
      }

      .cls-3 {
        fill: #e90182;
      }

      .cls-4 {
        fill: #fff;
      }

      .cls-5 {
        fill: #01ddf5;
      }

      .cls-6 {
        fill: #a2a2a2;
      }

      .cls-7 {
        fill: #e80181;
      }

      .cls-8 {
        fill: #d7d7d7;
      }

      .cls-9 {
        fill: #00dcf4;
      }
    </style>
  </defs>
  <g>
    <path class="cls-4" d="M337.02,45.35c1.13-3.72,3.56-6.48,7.29-8.27.11-.05.2-.15.24-.26,8.35-20.37,27.22-34.54,49.22-36.56,9.03-.83,17.6.28,25.71,3.32,16.28,6.11,27.82,17.38,34.59,33.82.05.11.13.2.23.27,3.13,1.9,5.17,4.51,6.12,7.83.35,1.22.52,3.08.51,5.58-.01,4.76,0,9.52.03,14.29.05,6.13-4.06,11.5-9.96,12.91-2.71.65-6.52.39-9.66.37-.15,0-.19-.07-.13-.21,6.49-13.15,6.76-28.8.11-41.98-.16-.32-.06-.49.3-.48l2.86.03c.15,0,.19-.07.12-.2-4.17-8.14-9.99-14.64-17.48-19.51-25.39-16.51-59.52-7.47-73.36,19.55-.04.07.02.16.1.16l2.18-.03c.17,0,.22.07.15.23-6.65,14.08-6.65,28.15,0,42.22.07.14.02.21-.13.21-2.25.03-4.5.03-6.76,0-5.7-.08-10.58-3.83-12.25-9.19-.37-1.17-.56-2.9-.57-5.16-.03-4.66-.03-9.32,0-13.98.01-2.13.2-3.78.55-4.95Z"/>
    <path class="cls-4" d="M359.56,40.79c8.48-20.24,30.88-30.89,51.97-24.6,16.59,4.95,28.61,19.46,30.43,36.68,2.1,19.85-9.95,38.72-28.78,45.14-9.64,3.29-19.37,3.12-29.18-.5-.12-.04-.23-.02-.32.07l-12.8,12.78c-.1.1-.26.03-.26-.11v-20.64c.01-.13-.04-.24-.13-.33-13.56-12.39-18.01-31.58-10.93-48.5Z"/>
    <path class="cls-4" d="M381.55,104.21c.08-.08.19-.1.29-.06,22.16,7.78,46,.11,59.42-19.09.09-.12.2-.18.35-.18h8.88c.11,0,.19.13.13.22-9.63,16.9-26.49,27.97-46,29.8-.15.01-.22.09-.22.24v10.46c0,.13.11.23.23.23,4.47.13,8.84.83,13.1,2.08,2.06.61,6.69,2.9,2.61,5.18-1.9,1.06-3.93,1.78-6.1,2.17-9.71,1.75-19.4,1.8-29.1.16-2.42-.41-6.27-1.28-7.99-2.98-2.96-2.93,4.4-4.89,5.74-5.19,3.56-.82,7.2-1.29,10.91-1.42.13,0,.19-.07.19-.2l-.03-10.5c0-.12-.06-.19-.18-.2-6.23-.6-12.22-2.13-17.97-4.59-.14-.06-.17-.24-.06-.34l5.78-5.78Z"/>
    <path class="cls-4" d="M347.96,84.87h8.87c.12,0,.22.05.29.15,2.86,4.17,6.26,7.84,10.22,10.99.2.16.32.4.32.66l.02,9.09c0,.12-.13.19-.23.13-7.96-5.09-15.11-12.39-19.63-20.77-.06-.11.02-.25.15-.25Z"/>
  </g>
  <path class="cls-3" d="M425.46,28.32c-7.56-6.94-16.48-10.12-26.77-10.36-.12,0-.22.11-.19.23,4,18.64,5.98,37.51,5.94,56.58,0,.13.06.18.19.15l8.32-1.63c.15-.03.24-.13.25-.29.35-5.4,1.85-10.46,4.5-15.16,2.68-4.76,6.36-10.15,8.56-15.71,1.46-3.68,1.66-7.48.63-11.39-.29-1.1-.56-1.64-1.43-2.44h0Z"/>
  <path class="cls-5" d="M394.67,75.22c0,.08.08.15.17.15,2.72.06,5.42-.05,8.12-.34.11-.01.17-.08.17-.19.1-19.08-1.86-37.94-5.87-56.59-.03-.13-.11-.19-.24-.19-.53,0-.9.01-1.12.03-10.76,1.11-19.57,5.74-26.42,13.89-.11.13-.15.3-.13.46.64,4.14,2.12,7.97,4.45,11.5,4.15,6.3,10.69,11.06,15.33,17.25,3.11,4.15,4.96,8.83,5.54,14.02h0Z"/>
  <path class="cls-3" d="M437.63,58.47c.5-9.87-2.77-19.44-9.14-26.98-.05-.06-.16-.01-.14.07,1.36,6.66-1.2,12.93-4.7,18.53-2.59,4.14-4.77,8.08-6.53,11.82-1.55,3.28-2.42,6.83-2.62,10.66,0,.13.05.18.18.14,8.69-2.5,16.19-6.96,22.48-13.39.26-.26.44-.44.46-.85h0Z"/>
  <path class="cls-5" d="M393.39,75.1c-.94-9.84-7.29-16.14-14.04-22.73-5.32-5.2-9.44-10.85-11.02-18.57-.04-.18-.11-.2-.22-.05-6.12,8.6-8.43,18.19-6.93,28.76.04.3.17.54.38.74,8.47,7.88,20.23,11.7,31.67,12.02.11,0,.17-.05.15-.17h0Z"/>
  <path class="cls-3" d="M425.19,84.82c6.66-6.14,11.08-14.55,12.15-23.57.02-.18-.03-.21-.17-.08-6.44,6.13-13.95,10.4-22.53,12.81-.09.03-.15.11-.15.21.14,6.3,3.04,10.51,9.71,10.85.47.02.8-.05.98-.22h0Z"/>
  <path class="cls-5" d="M361.69,65.23c2.29,9.54,7.74,17.38,15.86,23.05.74.52,1.47.78,2.18.79,2.02.01,4.25-.21,6.11-.93,4.65-1.8,7.26-5.46,7.84-10.99.04-.34-.23-.65-.57-.66-11.11-.33-22.69-3.97-31.28-11.34-.06-.05-.16,0-.14.08h0Z"/>
  <path class="cls-3" d="M412.75,92.49l4.2-1.87c2.28-1.22,4.42-2.61,6.41-4.19.14-.11.12-.18-.05-.2-.43-.06-.85-.13-1.26-.21-6-1.08-8.54-5.73-8.78-11.43,0-.12-.07-.17-.19-.14-2.82.74-5.68,1.3-8.57,1.65-.1.01-.18.1-.19.2-.05,6.18-.68,12.31-1.88,18.37-.02.1.02.14.12.13,3.48-.31,6.87-1.08,10.18-2.31h0Z"/>
  <path class="cls-5" d="M402.86,76.34l-7.87.34c-.11,0-.17.06-.17.17-.3,6.57-3.46,10.82-9.47,12.74-1.27.41-2.74.57-4.15.66-.26.02-.27.09-.04.21,6.19,3.24,12.8,4.73,19.82,4.47.11,0,.18-.06.2-.17,1.2-6.01,1.83-12.08,1.89-18.21,0-.11-.09-.21-.2-.2h0Z"/>
  <g>
    <g>
      <path class="cls-8" d="M110.94,186.09c.43,0,.57-.34.74-.62.62-1.04,1.5-1.89,2.26-2.82.24-.29.51-.56.94-.5-.27,3.07-.63,6.13-.85,9.26-1-1.8-2.05-3.55-3.08-5.31Z"/>
      <path class="cls-6" d="M348.99,191.13l-.08.02h-.08c-.16-1.73.17-3.44.25-5.15.11,1.71.25,3.43-.1,5.13Z"/>
      <path class="cls-8" d="M429.82,187.59c-.04-.3,0-.56.39-.56-.02.26-.19.42-.39.56Z"/>
      <path class="cls-8" d="M434.13,181.6c-.09-.33.02-.54.38-.56,0,.28-.16.44-.38.56Z"/>
      <path class="cls-8" d="M430.2,187.03c-.08-.33.02-.54.38-.56,0,.28-.16.44-.38.56Z"/>
      <path class="cls-8" d="M438.06,176.18c-.08-.33.02-.54.38-.56,0,.28-.17.44-.38.56Z"/>
      <path class="cls-8" d="M436.18,178.8c-.06-.32.03-.53.39-.57-.02.27-.19.42-.39.57Z"/>
      <path class="cls-8" d="M432.25,184.22c-.06-.32.03-.53.39-.57-.02.27-.19.43-.39.57Z"/>
      <path class="cls-8" d="M435.62,179.55c-.07-.33.02-.54.39-.56,0,.28-.18.43-.39.56Z"/>
      <path class="cls-8" d="M431.69,184.97c-.07-.33.02-.54.39-.56,0,.28-.17.43-.39.56Z"/>
      <path class="cls-8" d="M429.26,188.33c-.06-.32.03-.53.39-.56,0,.28-.18.43-.39.56Z"/>
      <path class="cls-8" d="M428.32,189.64c-.06-.32.03-.53.39-.57-.01.27-.19.43-.39.57Z"/>
      <path class="cls-8" d="M427.77,190.39c-.08-.33.01-.54.38-.57,0,.28-.17.44-.38.57Z"/>
      <path class="cls-8" d="M425.89,193.01c-.06-.32.03-.53.39-.57-.02.27-.19.42-.39.57Z"/>
      <path class="cls-8" d="M425.33,193.76c-.07-.33.02-.54.39-.56,0,.28-.18.43-.39.56Z"/>
      <path class="cls-8" d="M424.39,195.07c-.06-.32.03-.53.39-.57-.01.27-.19.43-.39.57Z"/>
      <path class="cls-8" d="M423.84,195.81c-.08-.33.02-.54.38-.56,0,.28-.16.44-.38.56Z"/>
      <path class="cls-8" d="M421.96,198.43c-.06-.32.04-.53.39-.57-.02.27-.19.43-.39.57Z"/>
      <path class="cls-8" d="M421.4,199.18c-.07-.33.02-.54.39-.56,0,.28-.17.43-.39.56Z"/>
      <path class="cls-8" d="M420.46,200.49c-.06-.32.03-.53.39-.56,0,.27-.19.43-.39.56Z"/>
      <path class="cls-8" d="M419.91,201.24c-.09-.33.02-.54.38-.56,0,.28-.16.44-.38.56Z"/>
      <path class="cls-8" d="M419.52,201.8c-.04-.31,0-.56.39-.56-.02.26-.19.42-.39.56Z"/>
      <path class="cls-8" d="M418.97,202.55c-.06-.32.03-.53.39-.57,0,.28-.18.43-.39.57Z"/>
      <path class="cls-8" d="M418.03,203.85c-.06-.32.03-.54.39-.57-.01.27-.19.43-.39.57Z"/>
      <path class="cls-8" d="M417.48,204.6c-.08-.33.02-.54.38-.57,0,.28-.17.44-.38.57Z"/>
      <path class="cls-8" d="M415.6,207.22c-.06-.32.03-.53.39-.57-.02.27-.19.42-.39.57Z"/>
      <path class="cls-8" d="M415.04,207.97c-.07-.32.03-.53.39-.56,0,.28-.18.43-.39.56Z"/>
      <path class="cls-8" d="M434.68,180.85c-.06-.32.03-.53.39-.56-.01.27-.19.43-.39.56Z"/>
      <path class="cls-8" d="M430.75,186.28c-.06-.32.03-.53.39-.56,0,.27-.19.43-.39.56Z"/>
      <path class="cls-8" d="M415.98,206.66c-.06-.2,0-.33.21-.38.08.21-.04.31-.21.38Z"/>
      <path class="cls-8" d="M420.85,199.93c-.07-.2,0-.33.21-.38.08.21-.03.31-.21.38Z"/>
      <path class="cls-8" d="M436.56,178.24c-.06-.2,0-.33.21-.38.08.21-.04.31-.21.38Z"/>
      <path class="cls-8" d="M432.63,183.66c-.06-.2,0-.33.21-.38.08.21-.04.31-.21.38Z"/>
      <path class="cls-8" d="M431.14,185.72c-.07-.2,0-.33.21-.38.08.21-.03.31-.21.38Z"/>
      <path class="cls-8" d="M426.27,192.45c-.06-.2,0-.33.21-.38.08.21-.04.31-.21.38Z"/>
      <path class="cls-8" d="M435.07,180.3c-.06-.2,0-.33.21-.38.08.21-.03.31-.21.38Z"/>
      <path class="cls-8" d="M422.34,197.87c-.06-.2,0-.33.21-.38.08.21-.04.31-.21.38Z"/>
      <path class="cls-8" d="M418.41,203.3c-.06-.2,0-.33.21-.38.08.21-.04.31-.21.38Z"/>
      <path class="cls-8" d="M424.77,194.51c-.06-.2,0-.33.21-.38.08.21-.04.31-.21.38Z"/>
      <path class="cls-8" d="M428.7,189.08c-.06-.2,0-.33.21-.38.08.21-.04.31-.21.38Z"/>
      <path class="cls-8" d="M436,178.99c-.03-.15,0-.25.19-.21-.01.11-.05.21-.19.21Z"/>
      <path class="cls-8" d="M435.44,179.74c-.01-.14,0-.26.19-.2-.01.12-.04.21-.19.2Z"/>
      <path class="cls-8" d="M435.26,179.94c-.02-.14.02-.23.19-.21,0,.13.02.27-.19.21Z"/>
      <path class="cls-8" d="M434.5,181.05c-.03-.15,0-.25.19-.21-.01.11-.04.21-.19.21Z"/>
      <path class="cls-8" d="M433.95,181.88c-.02-.15-.06-.3.18-.29.01.14-.06.23-.18.29Z"/>
      <path class="cls-8" d="M432.83,183.3c-.03-.14.04-.22.16-.27.05.15.06.28-.16.27Z"/>
      <path class="cls-8" d="M432.07,184.41c-.03-.15,0-.25.19-.21-.01.12-.04.21-.19.21Z"/>
      <path class="cls-8" d="M431.51,185.16c-.01-.14,0-.26.19-.2-.01.12-.04.21-.19.2Z"/>
      <path class="cls-8" d="M431.33,185.36c-.02-.14.02-.23.19-.21,0,.13.02.27-.19.21Z"/>
      <path class="cls-8" d="M430.57,186.47c-.03-.15,0-.25.19-.2-.01.12-.04.21-.19.2Z"/>
      <path class="cls-8" d="M429.64,187.78c-.03-.15,0-.25.19-.21-.01.11-.05.21-.19.21Z"/>
      <path class="cls-8" d="M429.08,188.53c-.01-.14,0-.26.19-.2-.01.12-.04.21-.19.2Z"/>
      <path class="cls-8" d="M428.9,188.72c-.02-.14.02-.23.19-.21,0,.13.02.27-.19.21Z"/>
      <path class="cls-8" d="M428.14,189.83c-.03-.15,0-.25.19-.21-.01.12-.04.21-.19.21Z"/>
      <path class="cls-8" d="M427.59,190.67c-.02-.15-.05-.3.18-.28.01.14-.06.23-.18.28Z"/>
      <path class="cls-8" d="M426.47,192.09c-.03-.13.03-.22.15-.27.06.15.08.28-.15.27Z"/>
      <path class="cls-8" d="M425.71,193.2c-.03-.15,0-.25.19-.21-.01.11-.05.21-.19.21Z"/>
      <path class="cls-8" d="M425.15,193.95c-.01-.14,0-.26.19-.2-.01.12-.04.21-.19.2Z"/>
      <path class="cls-8" d="M424.97,194.15c-.02-.14.02-.23.19-.21,0,.13.02.27-.19.21Z"/>
      <path class="cls-8" d="M424.21,195.26c-.03-.15,0-.25.19-.21-.01.12-.04.21-.19.21Z"/>
      <path class="cls-8" d="M423.66,196.09c-.02-.15-.05-.3.19-.28.01.14-.06.23-.19.28Z"/>
      <path class="cls-8" d="M422.54,197.51c-.03-.14.04-.22.16-.27.05.15.06.28-.16.27Z"/>
      <path class="cls-8" d="M421.78,198.62c-.03-.15,0-.25.19-.21-.01.12-.04.21-.19.21Z"/>
      <path class="cls-8" d="M421.22,199.37c-.01-.14,0-.26.19-.2-.01.12-.04.21-.19.2Z"/>
      <path class="cls-8" d="M421.04,199.57c-.02-.14.02-.23.19-.21,0,.13.02.27-.19.21Z"/>
      <path class="cls-8" d="M420.28,200.68c-.03-.15,0-.25.19-.2-.01.12-.04.21-.19.2Z"/>
      <path class="cls-8" d="M419.35,201.99c-.03-.15,0-.25.19-.21-.01.11-.04.21-.19.21Z"/>
      <path class="cls-8" d="M418.79,202.74c-.01-.14,0-.26.19-.2-.01.12-.04.21-.19.2Z"/>
      <path class="cls-8" d="M418.61,202.94c-.02-.14.02-.23.19-.21,0,.13.02.27-.19.21Z"/>
      <path class="cls-8" d="M417.85,204.05c-.03-.15,0-.25.19-.21-.01.12-.04.21-.19.21Z"/>
      <path class="cls-8" d="M417.3,204.88c-.02-.15-.05-.3.18-.28.01.14-.06.23-.18.28Z"/>
      <path class="cls-8" d="M416.18,206.3c-.03-.14.04-.22.16-.27.05.15.06.28-.16.27Z"/>
      <path class="cls-8" d="M415.42,207.41c-.03-.15,0-.25.19-.21-.01.11-.05.21-.19.21Z"/>
      <path class="cls-8" d="M414.86,208.22c-.02-.14-.03-.28.18-.26-.06.09-.12.17-.18.26Z"/>
      <path class="cls-8" d="M437.88,176.45c-.02-.15-.05-.3.18-.28.01.14-.06.23-.18.28Z"/>
      <path class="cls-8" d="M436.76,177.87c-.03-.13.03-.22.15-.27.06.15.08.28-.15.27Z"/>
      <path class="cls-1" d="M72.78,197.5c-.2-.06-.28-.18-.2-.39.21.05.32.16.2.39Z"/>
      <path class="cls-1" d="M72.43,196.94c-.05-.04-.11-.08-.16-.12.05.04.11.08.16.12Z"/>
      <path class="cls-1" d="M72.6,197.14c-.2.05-.18-.09-.19-.21.18-.03.21.06.19.21Z"/>
      <path class="cls-4" d="M449.66,160.72c-1.42,1.92-2.84,3.83-4.25,5.76-1.22,1.68-2.41,3.38-3.62,5.08-.23.28-.48.56-.7.86-9.39,12.97-18.78,25.96-28.2,38.92-.51.7-.61,1.23.04,1.82,2.28,4.02,4.56,8.04,6.85,12.05,8.92,15.56,17.85,31.11,26.78,46.67.17.29.31.59.49.93-1.99.37-3.91.72-5.82,1.08-2.02.23-4,.69-6,1.09-.22,0-.44-.01-.65.03-8.85,1.57-17.7,3.14-26.55,4.75-.59.11-.92-.05-1.3-.43-2.83-2.85-5.68-5.69-8.52-8.53-.22-.22-.42-.46-.6-.71-4.31-6.12-8.62-12.24-12.93-18.37-1.11-1.58-2.24-3.16-3.49-4.91-.03.35-.05.47-.05.58-.18,4.29-.36,8.59-.52,12.88-.06,1.49-.05,2.98-.08,4.47-.07,1.51-.13,3.03-.2,4.54-.16,3.52-.32,7.04-.32,10.57-.14.4-.34.64-.84.59-.58-.06-1.17,0-1.76,0-1.87,0-3.74,0-5.61,0-.34-.01-.68-.04-1.02-.04-8.53,0-17.06.02-25.6.02-.33,0-.68.13-.98-.16-1.24-1.21-2.54-2.38-3.73-3.63-1.33-1.39-2.64-2.78-4.04-4.09-.3-.31-.57-.66-.9-.94-.47-.39-.62-.84-.6-1.45.1-5.01.15-10.03.26-15.04.21-9.87.48-19.74.68-29.61.17-7.88.21-15.76.45-23.64.11-3.58.04-7.16.24-10.74.13-2.45.05-4.92.07-7.38.35-1.71.21-3.42.1-5.13-.09,1.71-.41,3.42-.25,5.14-.39,7.43-.79,14.86-1.18,22.29-.32,6.09-.65,12.19-.98,18.28-.42,7.77-.84,15.55-1.25,23.32-.33,6.18-.6,12.36-1.01,18.54-.09,1.42.01,2.85-.26,4.27-.11.6-.27.74-.84.78-2.41.19-4.82.43-7.23.66-3.25.29-6.5.57-9.75.87-3.66.33-7.32.67-10.98,1.01-5.08.47-10.17.93-15.25,1.43-.63.06-1.04-.15-1.46-.58-2.74-2.77-5.49-5.52-8.26-8.26-.41-.41-.69-.85-.9-1.38-4.86-12.61-9.72-25.21-14.59-37.81-.09-.23-.12-.5-.42-.71-.1,1.45-.22,2.82-.27,4.18-.1,2.7-.47,5.39-.43,8.1-.19,2.69-.47,5.37-.56,8.06-.1,3.07-.4,6.12-.53,9.18-.11,2.67-.27,5.33-.41,8-.25,3.91-.52,7.81-.74,11.72-.03.59-.17.82-.79.78-.74-.05-1.49.01-2.24.03-1.75,0-3.49,0-5.24,0-.34-.02-.68-.05-1.02-.05-9.46,0-18.93.02-28.39.03-.39,0-.79.08-1.13-.27-1.12-1.16-2.26-2.29-3.41-3.42-1.4-1.39-2.81-2.77-4.21-4.16-.41-.43-.79-.88-1.23-1.27-.28-.26-.36-.51-.35-.89.23-7.88.45-15.76.64-23.63.16-6.48.21-12.96.45-19.43.12-3.21,0-6.42.29-9.62.06-.59.01-1.18.01-1.78,0-.58,0-1.15,0-1.73-1.47,8.12-3.24,16.15-5.64,24.02-1.24,4.06-2.79,8.01-4.42,11.92-1.57,3.65-3.39,7.18-5.41,10.59-1.45,2.44-2.98,4.86-4.87,7.02-.12.14-.19.32-.28.48-.07.05-.16.1-.21.17-3.09,3.85-6.64,7.22-10.65,10.1-.29.17-.6.33-.88.51-2.69,1.74-5.52,3.19-8.52,4.32-1.85.7-3.72,1.08-5.73,1.06-6.45-.08-12.9-.03-19.36-.03-.4,0-.8,0-1.2-.12-5.72-1.53-10.82-4.25-15.27-8.13-3.69-3.21-6.97-6.86-10.47-10.28-1.49-1.46-2.89-3.01-4.18-4.65-4.45-5.67-7.2-12.18-9.35-18.98-.66-2.08-1.25-4.19-1.7-6.33-.04-.17-.16-.32-.24-.48-.1.05-.27.09-.29.16-.26,1.2-1.04,2.24-1.01,3.52-.37.1-.39.46-.51.72-.55,1.23-1.02,2.49-1.6,3.7-2.88,5.95-6.68,11.26-11.39,15.91-2.37,2.34-4.96,4.42-7.65,6.38-.34.21-.69.4-1.03.63-3.15,2.11-6.44,3.99-9.88,5.59-10.21,4.74-21.01,7.27-32.17,8.39-9.45.95-18.9.89-28.35-.09-.63-.07-1.08-.28-1.52-.73-2.34-2.36-4.71-4.7-7.07-7.04-.28-.29-.52-.63-.84-.87-.69-.54-.91-1.2-.89-2.08.05-2.21.16-4.42.2-6.63.14-8.9.37-17.8.55-26.7.19-8.99.35-17.99.57-26.98.19-7.69.28-15.38.4-23.06.02-1.08-.12-2.18.01-3.25.29-2.29.13-4.58.15-6.86.09-1.16.1-2.33.15-3.49.19-4.94.21-9.88.3-14.82.01-.69-.33-1.41.14-2.07.32.05.6-.04.9-.13,1.7-.5,3.42-.97,5.13-1.42,7.56-2,15.28-2.94,23.05-3.46,3.72-.25,7.45-.28,11.18-.25,3.67.03,7.29.39,10.91.88,2.95.55,5.87,1.21,8.74,2.13,6.98,2.24,13.31,5.63,18.8,10.52,3.26,2.9,6.2,6.13,9.34,9.16,3.01,2.9,5.73,6.03,8.06,9.51,1.04,1.76,2.08,3.51,3.08,5.31.23-3.12.58-6.19.85-9.26.4-3.32.72-6.65,1.21-9.96.6-4.09,1.35-8.16,1.99-12.25.08-.51.26-.61.71-.59,2.43.09,4.86.13,7.28.24,3.07.14,6.15.31,9.23.3,1.78.41,3.6.17,5.39.26,5.51.27,11.01.49,16.52.69.65.02,1.2.09,1.64.6,2.76,2.78,5.53,5.56,8.3,8.34.31.31.58.57.49,1.11-.47,2.66-.91,5.33-1.32,8.01-1.57,10.21-3.05,20.43-3.74,30.74-.67,10.02-.83,20.03.62,30,.33,2.3.68,4.6,1.37,6.94.88-.58,1.78-1,2.22-1.97.76-.45,1.1-1.23,1.52-1.93,2.16-3.59,3.27-7.56,4.26-11.57.95-3.87,1.61-7.8,2.21-11.73.4-2.63.69-5.28.96-7.93.25-2.47.42-4.95.61-7.42.24-3.13.53-6.25.69-9.38.16-3.01.16-6.04.26-9.05.11-3.14.06-6.28-.08-9.42.08-5.43-.23-10.85-.57-16.26.15-.78-.03-1.55-.13-2.31-.1-.75.03-1.08.94-1.06,2.67.06,5.34,0,8.01-.01.34.01.68.03,1.03.03,9.76,0,19.52,0,29.28.01.38,0,.72-.06,1.08.31,2.59,2.65,5.23,5.26,7.85,7.88.75.75,1.75,1.37,1.43,2.72.24-4.53.39-9.01.49-13.49.02-.7.06-1,.91-1.02,3.83-.12,7.65-.27,11.47-.56,1.8-.13,3.62,0,5.4-.35,3.55.1,7.08-.29,10.63-.39,4.56-.13,9.12-.46,13.68-.73.54-.03.92.1,1.29.51,2.02,2.24,4.25,4.27,6.4,6.39.12.3.4.45.63.66,1.08,1.02,2.05,2.09,2.71,3.49,4.16,8.79,8.4,17.55,12.61,26.31.16.33.33.64.49.97,2.13,4.46,4.26,8.91,6.39,13.36.19-.36.19-.64.19-.92.03-4.91.2-9.83.34-14.74.11-3.67.13-7.34.18-11,.14-5.51.27-11.02.42-16.53.04-1.53.13-3.05.16-4.58,0-.45.16-.56.59-.57,4.27-.11,8.54-.22,12.8-.37,6.23-.22,12.45-.46,18.68-.69,2.55-.09,5.11-.15,7.66-.25.49-.02.78.16,1.11.49,2.61,2.64,5.24,5.25,7.86,7.87.12.12.25.24.39.37.2-.32.12-.6.11-.87-.09-3.49.22-6.98.19-10.46,0-.46.07-.64.61-.61,4.44.27,8.89.51,13.33.75,2.61.14,5.22.26,7.83.4,4.07.23,8.14.48,12.21.71,1.74.1,3.48.16,5.23.23.37.02.67.05.98.37,2.84,2.89,5.71,5.75,8.59,8.6.41.4.57.77.51,1.38-.31,3.44-.56,6.88-.83,10.35.38-.12.45-.46.61-.7,4.63-7.12,9.26-14.24,13.86-21.38.34-.53.67-.76,1.33-.7,2.97.28,5.95.5,8.92.73,2.63.21,5.27.39,7.91.6,2.85.23,5.7.47,8.55.7,1.86.15,3.72.28,5.58.42,2.39.18,4.77.38,7.16.55.35.02.46.29.65.47,2.81,2.79,5.6,5.6,8.41,8.39.19.18.3.48.64.49v5.98ZM373.87,233.64c.01.11.05.2.18.21h0c.08.33.26.58.56.75h0c0,.27.14.45.38.56h0c.01.26.16.43.38.56h0c.09.32.26.58.56.75h0c0,.27.15.44.38.56h0c.01.26.17.43.39.56h0c.01.11.04.2.19.19h0c0,.27.13.45.38.56h0c0,.27.15.44.38.56h0c.08.33.26.58.56.75h0c0,.27.14.45.38.56h0c.01.26.16.43.38.56h0c.09.32.26.58.56.75h0c0,.27.15.44.38.56h0c.01.26.17.43.38.56h0c.01.11.04.2.19.19h0c0,.27.13.45.38.56h0c0,.27.15.44.38.56h0c.08.33.26.58.56.75h0c0,.27.14.45.38.56h0c.01.26.16.43.38.56h0c.09.32.26.58.56.75h0c0,.27.14.45.38.56h0c.01.26.17.43.39.56h0c.01.11.04.2.19.19h0c0,.27.13.45.38.56h0c0,.27.15.44.38.56h0c.08.33.26.58.56.75h0c0,.27.14.45.38.56h0c.01.26.16.43.38.56h0c.09.32.26.58.56.75h0c0,.27.15.44.38.56h0c.01.26.17.43.38.56h0c.01.11.04.2.19.19h0c0,.27.13.45.38.56h0c0,.27.15.44.38.56h0c.08.33.26.58.56.75h0c0,.27.14.45.38.56h0c.01.26.16.43.38.56h0c.09.32.26.58.56.75h0c0,.27.15.44.38.56h0c.01.26.17.43.38.56h0c.01.11.04.2.19.19h0c0,.27.13.45.38.56h0c0,.27.15.44.38.56h0c.08.33.26.58.56.75h0c0,.27.14.45.38.56h0c0,.26.16.43.38.56h0c.08.32.26.58.56.75h0c0,.27.15.44.38.56h0c.01.26.17.43.38.56h0c.01.11.04.2.19.19h0c0,.27.13.45.38.56h0c0,.27.15.44.38.56h0c.08.33.26.58.56.75h0c0,.27.14.45.38.56h0c0,.26.16.44.38.56h0c.08.33.26.58.56.75h0c0,.27.14.45.38.56h0c.01.26.17.43.38.56h0c.01.11.04.2.19.19h0c0,.27.13.45.38.56h0c.01.2.11.25.28.16,3.72-.65,7.44-1.29,11.16-1.95,5.46-.96,10.92-1.93,16.38-2.91,2.04-.36,4.08-.75,6.12-1.12.97.04,1.88-.31,2.92-.41-.68-1.19-1.33-2.31-1.98-3.44-10.39-18.11-20.77-36.22-31.17-54.31-.48-.83-.84-1.64-.71-2.61.32-.41.64-.81.96-1.22.06-.09.12-.17.18-.26h0c.21-.12.39-.27.39-.55h0c.14.01.18-.08.19-.2h-.01c.2-.13.37-.29.39-.55h0c.17-.06.29-.16.21-.37h-.01c.22.02.21-.1.16-.25l.97-1.15c.12-.05.19-.14.18-.28h0c.22-.12.38-.28.38-.56h0c.14.01.18-.08.19-.2h-.01c.2-.12.38-.28.39-.55h0c.17-.06.29-.16.21-.37v.02c.19.06.18-.08.17-.21h0c.15.02.18-.08.19-.19h0c.21-.12.39-.28.39-.55h0c.14.01.18-.08.19-.2v.02c.19-.14.36-.3.38-.56h0c.22-.12.38-.28.38-.56h0c.15.01.18-.08.19-.2h0c.2-.12.38-.28.39-.55h0c.18-.06.29-.16.21-.37v.02c.2.06.18-.08.17-.21h0c.15.02.18-.08.19-.19h0c.21-.12.39-.28.39-.55h0c.14.01.18-.08.19-.2h-.01c.2-.13.37-.28.39-.55h0c.17-.06.29-.16.21-.37h-.01c.22.03.21-.1.16-.25.32-.38.64-.77.96-1.15.13-.05.2-.14.19-.28h0c.22-.12.38-.28.38-.55h0c.14.01.18-.08.19-.2h0c.2-.13.38-.28.39-.55h0c.17-.06.29-.16.21-.37v.02c.19.06.18-.08.17-.21h0c.15.02.18-.08.19-.19h0c.21-.12.39-.28.39-.55h0c.14.01.18-.08.19-.2h-.01c.2-.13.37-.29.39-.55h0c.17-.06.29-.16.21-.37h-.01c.23.02.21-.11.15-.26l.98-1.14c.12-.05.19-.14.18-.28h0c.22-.12.38-.28.38-.56h0c.14.01.18-.08.19-.2h-.01c.2-.13.38-.28.39-.55h0c.17-.06.29-.16.21-.37v.02c.19.06.18-.08.17-.21h0c.15.02.18-.08.19-.19h0c.21-.12.39-.28.39-.55h0c.14.01.17-.09.19-.2h-.01c.2-.13.37-.29.39-.55h0c.22-.12.38-.28.38-.56h0c.15.02.18-.08.19-.2h0c.2-.12.38-.28.39-.55h0c.18-.06.29-.16.21-.37v.02c.2.06.18-.08.17-.21h0c.15.02.18-.08.19-.19h0c.21-.12.39-.27.39-.55h0c.14.01.18-.08.19-.2h-.01c.2-.13.37-.28.39-.55h0c.17-.06.29-.16.21-.37h-.01c.22.03.21-.1.16-.25.32-.38.64-.77.96-1.15.13-.05.2-.14.18-.29h0c.22-.12.38-.28.38-.56h0c.14.01.18-.08.19-.2h-.01c.2-.13.38-.28.39-.55h0c.17-.06.29-.16.21-.37v.02c.19.06.18-.08.17-.21h0c.15.02.18-.08.19-.19h0c.21-.12.39-.28.39-.55h0c.14.01.18-.08.19-.2h-.01c.2-.13.37-.29.39-.55h0c.17-.07.29-.16.21-.37h-.01c.23.02.21-.11.15-.26.33-.38.65-.76.98-1.15.12-.05.19-.14.18-.28h0c.21-.12.38-.28.38-.55h0c.14.01.18-.08.19-.2h-.01c.2-.13.38-.28.39-.55h0c.17-.06.29-.16.21-.37v.02c.19.06.18-.08.17-.21h0c.15.02.18-.08.19-.19h0c.21-.12.39-.28.39-.55h0c.14.01.17-.09.19-.2h-.01c.2-.13.37-.29.39-.55h0c.22-.12.39-.28.38-.56h0c.15.02.18-.08.19-.2h0c.2-.12.38-.28.39-.55h0c.17-.06.29-.16.21-.37v.02c.2.06.18-.08.17-.21h0c.15.02.18-.08.19-.19h0c.21-.12.39-.28.39-.55h0c.14.01.18-.08.19-.2h-.01c.2-.13.37-.29.39-.55h0c.17-.06.29-.16.21-.37h-.01c.22.03.21-.1.16-.25.32-.39.64-.77.96-1.16.13-.05.2-.14.19-.28h0c.22-.12.38-.28.38-.55h0c.14.01.18-.08.19-.2h-.01c.2-.13.38-.28.39-.55h0c.17-.06.3-.16.21-.37v.02c.2.06.18-.08.17-.21h0c.15.02.18-.08.19-.19h0c.21-.12.39-.28.39-.55h0c.14.01.18-.08.19-.2h-.01c.2-.13.37-.29.39-.55h0c.22-.12.38-.29.38-.56h0c.15.02.18-.08.19-.2h-.01c.21-.12.38-.28.39-.55h0c.18-.06.3-.16.21-.37v.02c.2.06.17-.08.17-.21h0c.15.02.18-.08.19-.19h0c.21-.12.39-.28.39-.55h0c.14.01.18-.08.19-.2h-.01c.2-.13.38-.28.39-.55h0c.17-.06.3-.16.21-.37v.02c.19.06.18-.08.17-.21,0,0,0,0,0,0,.14.01.18-.08.19-.2.94-.94,1.53-2,1.31-3.4-.07-.43-.06-.88,0-1.31.11-.76-.17-1-.92-1.06-6.62-.49-13.24-1.02-19.86-1.55-5.1-.4-10.19-.79-15.29-1.23-.67-.06-1.04.07-1.42.66-7.87,12.18-15.76,24.33-23.66,36.5-.61.94-1.21,1.88-1.85,2.8-.38.54-.92.85-1.61.68-.74-.18-1.05-.73-1.13-1.43-.03-.24,0-.5.01-.74.26-3.42.52-6.83.8-10.25.41-5.09.82-10.18,1.23-15.28.27-3.38.54-6.77.81-10.15.04-.45.11-.79-.6-.82-5.79-.28-11.58-.61-17.37-.94-6.04-.34-12.08-.67-18.11-1.05-.75-.05-.76.24-.78.81-.29,14.14-.59,28.28-.89,42.43-.57,26.98-1.13,53.95-1.69,80.93q-.03,1.5,1.54,1.4c4.14.01,8.28.04,12.42.04,5.76,0,11.51-.02,17.27-.03.51-.17,1.44.64,1.48-.66.25-7.55.51-15.11.78-22.66.16-4.32.35-8.64.52-12.96.45-1.06,1.65-1.48,2.44-.81.32.27.53.67.79,1.02.06.07.11.15.16.22v-.02ZM116.38,255.73c-.02.15,0,.26.2.2l-.02-.02c-.09.22.07.3.22.38v-.02c.05.09.11.17.16.26.95,1.35,2.08,2.54,3.26,3.67,3.31,3.16,7.04,5.72,11.26,7.52,1.85.79,3.7,1.77,5.72,1.8,7.04.1,14.09.04,21.13.04.31,0,.61-.04.91-.12,7.33-2.09,13.43-6.17,18.73-11.56,1.56-1.59,2.94-3.33,4.33-5.07.06-.09.12-.18.18-.27v.02c.19-.14.38-.28.38-.56h0c.69-.78,1.39-1.56,1.71-2.59h0c.37-.07.41-.42.57-.66,3.97-6.18,7.11-12.77,9.53-19.69,5.42-15.51,8.1-31.54,8.95-47.91.51-9.79.09-19.56-.56-29.33-.06-.84-.26-1.14-1.18-1.13-11.63.04-23.26.02-34.89.02-1.19,0-1.21,0-1.14,1.18.44,7.25.67,14.5.7,21.77.05,11.26-.73,22.47-2,33.66-.78,6.84-1.89,13.62-3.79,20.25-1.05,3.69-2.39,7.26-4.74,10.37-3.05,4.02-8.41,4.6-11.47-.27-1.29-2.05-2.22-4.24-2.86-6.56-2-7.19-2.57-14.58-2.77-21.99-.15-5.52.14-11.03.5-16.53.5-7.62,1.48-15.18,2.57-22.73.71-4.96,1.5-9.9,2.26-14.91-4.79-.19-9.58-.37-14.38-.56-7.32-.28-14.64-.55-21.96-.87-.66-.03-.81.16-.92.75-1.55,8.68-2.72,17.41-3.42,26.19-1.04,12.98-1.17,25.95.31,38.91.86,7.5,2.31,14.87,4.91,21.98,1.61,4.39,3.48,8.65,6.18,12.5.17.36.37.71.7.95h0c.04.21.07.43.36.39h-.01c-.09.2.04.29.21.36h0c0,.13.01.23.19.2h0ZM84.23,239.07v.02c.18-.14.38-.28.38-.56h0c.29-.17.48-.42.56-.75,0,0,0,0,0,0,.49-.41.77-.97,1.09-1.51,2.64-3.85,4.68-8,6.22-12.39,4.3-12.24,5-24.77,2.3-37.37-2.74-12.75-9.61-22.91-20.73-29.96-9.05-5.74-19.08-8.22-29.7-8.52-6.68-.19-13.34.18-19.98.9-6.67.72-13.24,1.93-19.67,3.87-.57.17-.78.39-.79,1-.09,5.51-.22,11.03-.34,16.54-.39,18.78-.78,37.57-1.17,56.35-.26,12.49-.53,24.99-.81,37.48-.03,1.52-.05,1.52,1.55,1.44,3.13.38,6.27.52,9.41.58,5.14.1,10.27-.05,15.4-.52,5.18-.48,10.31-1.21,15.37-2.38,7.95-1.85,15.57-4.58,22.68-8.62,4.78-2.72,9.2-5.91,13.12-9.78,1.77-1.75,3.42-3.59,4.93-5.57.06-.08.12-.17.18-.25ZM319.64,260.46c.53-.14,1.4.42,1.46-.69.44-8.18.87-16.36,1.31-24.55.46-8.8.91-17.61,1.38-26.41.59-11.11,1.2-22.21,1.8-33.32.49-9.18.97-18.36,1.47-27.53.03-.57-.01-.8-.7-.78-12,.42-23.99.82-35.99,1.2-.59.02-.71.2-.72.75-.09,4.33-.22,8.66-.32,12.99-.33,14.08-.65,28.16-.98,42.24,0,.34-.08.68-.15,1.01-.14.64-.54,1.05-1.19,1.15-.66.11-1.17-.18-1.5-.73-.26-.42-.46-.88-.68-1.33-9.42-19.58-18.84-39.16-28.24-58.74-.25-.51-.51-.62-1.05-.59-7.22.36-14.45.69-21.67,1.03-5.79.28-11.58.58-17.38.85-.54.03-.72.14-.73.73-.29,12.05-.61,24.11-.91,36.16-.28,10.9-.54,21.8-.82,32.7-.41,15.98-.81,31.96-1.26,47.93-.03.97.3,1.19,1.13,1.05.15-.03.29-.07.44-.11,1.12.01,2.24.03,3.36.03,4.89,0,9.77,0,14.66,0,4.89,0,9.77,0,14.66,0,1.4.2,1.4.2,1.47-1.14.25-4.35.51-8.71.77-13.06.4-6.78.79-13.56,1.19-20.34.54-9.11,1.09-18.22,1.64-27.33.33-.74.78-1.3,1.71-1.23.86.06,1.18.63,1.39,1.33.03.09.05.18.08.27,3.9,10.09,7.8,20.17,11.69,30.26,3.78,9.8,7.56,19.59,11.32,29.39.2.51.41.84.99.48.37-.01.75,0,1.12-.04,3.99-.36,7.98-.72,11.98-1.09,2.81-.26,5.63-.51,8.44-.77,3.31-.3,6.62-.6,9.93-.92,2.97-.28,5.94-.58,8.91-.86Z"/>
      <path class="cls-9" d="M255.17,203.73c-.21-.71-.52-1.27-1.39-1.33-.94-.06-1.38.49-1.71,1.23-1.11.61-1.45,1.64-1.52,2.8-.14,2.24-.26,4.47-.4,6.71-.54,8.88-1.09,17.76-1.62,26.64-.52,8.57-1.02,17.14-1.53,25.71-4.89,0-9.77,0-14.66,0-4.89,0-9.77,0-14.66,0-1.12,0-2.24-.02-3.36-.03.21-7.94.42-15.88.62-23.82.26-10.21.52-20.43.78-30.64.24-9.34.47-18.69.71-28.03.26-10.4.54-20.8.77-31.21.02-.92.32-1.12,1.17-1.15,4.77-.18,9.53-.41,14.29-.63,7.28-.35,14.57-.7,21.85-1.07.58-.03.87.15,1.13.69,3.17,6.65,6.35,13.3,9.55,19.94,6.13,12.75,12.26,25.5,18.39,38.25.24.51.51,1,.88,1.43,1.34,1.58,3.91,1.37,4.9-.44.41-.74.46-1.6.48-2.45.23-9.69.46-19.37.69-29.06.19-8.1.39-16.2.56-24.29.01-.58.07-.87.79-.9,10.37-.33,20.75-.71,31.12-1.06,2.53-.09,2.5-.07,2.36,2.42-.49,8.77-.97,17.54-1.44,26.31-.47,8.77-.9,17.54-1.37,26.31-.59,11.13-1.21,22.27-1.81,33.4-.38,7-.75,13.99-1.13,20.99-2.97.29-5.94.58-8.91.86-3.31.31-6.62.61-9.93.92-2.81.26-5.63.51-8.44.77-3.99.36-7.98.73-11.98,1.09-.37.03-.74.03-1.12.04-5.79-15-11.57-30.01-17.36-45.01-1.78-4.61-3.55-9.21-5.35-13.81-.26-.67-.49-1.43-1.38-1.58Z"/>
      <path class="cls-9" d="M367.71,269.51c-5.76.01-11.51.03-17.27.03-4.14,0-8.28-.02-12.41-.04.34-15.73.67-31.46,1-47.19.24-11.56.48-23.11.72-34.67.26-12.61.53-25.23.79-37.84.04-2.12.03-2.08,2.15-1.96,7.53.44,15.06.85,22.59,1.27,2.68.15,5.35.32,8.03.44.76.03,1.07.22.98,1.09-.27,2.69-.43,5.4-.64,8.1-.7,8.72-1.41,17.44-2.1,26.16-.11,1.38.7,2.86,1.74,3.25,1.41.53,2.88.11,3.8-1.15.75-1.03,1.44-2.11,2.13-3.18,7.67-11.83,15.34-23.65,23-35.49.29-.45.58-.62,1.13-.57,3.1.27,6.21.51,9.32.75,7.52.59,15.04,1.17,22.55,1.76,2.06.16,2.06.17,2.11,2.2v.21s0,0,0,0c-.16-.02-.2.07-.19.21,0,0,.01-.02.01-.02-.21.05-.27.18-.21.38,0,0,0,0,0,0-.36.03-.45.25-.39.57,0,0,.01-.01.01-.01-.19-.05-.22.05-.19.21,0,0,0,0,0,0-.37.02-.46.24-.39.56,0,0,0-.01,0-.01-.19-.06-.2.06-.19.2h0c-.16-.03-.2.06-.19.2,0,0,.01-.02.01-.02-.21.05-.28.18-.21.38,0,0,0,0,0,0-.36.03-.45.24-.39.56,0,0,.01-.01.01-.01-.19-.05-.22.05-.19.2,0,0,0,0,0,0-.36.03-.46.24-.38.57h0c-.4,0-.43.25-.39.56,0,0,.01-.01.01-.01-.19-.04-.22.05-.19.21,0,0,0,0,0,0-.37.03-.46.24-.39.56,0,0,0-.01,0-.01-.19-.05-.2.06-.19.2h0c-.16-.03-.2.06-.19.2,0,0,.01-.02.01-.02-.21.05-.27.18-.21.38,0,0,0,0,0,0-.36.03-.45.25-.39.57,0,0,.01-.01.01-.01-.19-.05-.22.05-.19.21,0,0,0,0,0,0-.36.03-.47.23-.38.56h0c-.24-.03-.21.12-.19.27-.32.39-.64.77-.96,1.16-.12.05-.19.13-.16.27,0,0,.01-.01.01-.01-.21.05-.27.18-.21.38h0c-.36.03-.45.24-.39.56,0,0,.01-.01.01-.01-.19-.04-.22.05-.19.21,0,0,0,0,0,0-.37.02-.46.24-.39.56,0,0,0-.01,0-.01-.2-.05-.2.07-.19.2h0c-.16-.03-.2.06-.19.2,0,0,.01-.02.01-.02-.21.05-.27.18-.21.38,0,0,0,0,0,0-.36.03-.45.25-.39.56,0,0,0-.01,0-.01-.19-.05-.22.05-.19.2,0,0,0,0,0,0-.36.03-.47.23-.38.56h0c-.4,0-.43.26-.39.56,0,0,.01-.01.01-.01-.19-.04-.22.05-.19.21,0,0,0,0,0,0-.36.03-.45.24-.39.56,0,0,0-.01,0-.01-.19-.05-.2.06-.19.2h0c-.16-.03-.2.06-.19.2,0,0,.01-.02.01-.02-.21.05-.27.18-.21.38h0c-.36.03-.45.24-.39.56,0,0,.01-.01.01-.01-.19-.05-.22.05-.19.21,0,0,0,0,0,0-.37.03-.46.24-.38.56h0c-.24-.03-.2.13-.18.27-.33.38-.65.76-.98,1.15-.11.06-.18.14-.15.27,0,0,.01-.01.01-.01-.21.05-.27.18-.21.38,0,0,0,0,0,0-.36.03-.45.25-.39.57,0,0,.01-.01.01-.01-.19-.04-.22.05-.19.21,0,0,0,0,0,0-.37.02-.46.24-.39.56,0,0,0-.01,0-.01-.19-.05-.2.06-.19.2h0c-.16-.03-.2.06-.19.2,0,0,.01-.02.01-.02-.21.05-.27.18-.21.38,0,0,0,0,0,0-.36.03-.45.25-.39.56,0,0,.01-.01.01-.01-.19-.05-.22.05-.19.21,0,0,0,0,0,0-.36.03-.47.23-.38.56h0c-.24-.03-.21.13-.18.28-.32.38-.64.77-.96,1.15-.12.05-.19.13-.16.27,0,0,.01-.01.01-.01-.21.05-.27.18-.21.38,0,0,0,0,0,0-.36.03-.45.25-.39.57,0,0,.01-.01.01-.01-.19-.05-.22.05-.19.21,0,0,0,0,0,0-.37.02-.46.24-.39.56,0,0,0-.01,0-.01-.2-.05-.2.07-.19.2h0c-.16-.03-.2.06-.19.2,0,0,.01-.02.01-.02-.21.05-.28.18-.21.38,0,0,0,0,0,0-.36.03-.45.25-.39.56,0,0,0-.01,0-.01-.19-.05-.22.05-.19.2,0,0,0,0,0,0-.36.03-.46.24-.38.56,0,0,0,0,0,0-.4,0-.43.26-.39.56,0,0,.01-.01.01-.01-.19-.04-.22.05-.19.21h0c-.36.02-.45.24-.39.56,0,0,0-.01,0-.01-.19-.05-.2.07-.19.2,0,0,0,0,0,0-.16-.02-.2.07-.19.21,0,0,.01-.02.01-.02-.21.05-.27.18-.21.38,0,0,0,0,0,0-.36.03-.45.25-.39.57,0,0,.01-.01.01-.01-.19-.05-.22.05-.19.21,0,0,0,0,0,0-.37.03-.46.24-.38.57h0c-.24-.03-.2.13-.18.28-.33.38-.65.76-.98,1.14-.11.06-.18.14-.15.27,0,0,.01-.01.01-.01-.21.05-.27.18-.21.38,0,0,0,0,0,0-.36.03-.45.25-.39.57,0,0,.01-.01.01-.01-.19-.04-.22.05-.19.21,0,0,0,0,0,0-.37.02-.46.24-.39.56,0,0,0-.01,0-.01-.19-.05-.2.07-.19.2h0c-.16-.03-.2.06-.19.2,0,0,.01-.02.01-.02-.21.05-.27.18-.21.38h0c-.36.02-.45.24-.39.56,0,0,0-.01,0-.01-.19-.05-.22.05-.19.21,0,0,0,0,0,0-.36.03-.47.23-.38.56h0c-.24-.03-.21.13-.19.27-.32.38-.64.77-.96,1.15-.12.05-.19.13-.16.27,0,0,.01-.01.01-.01-.21.05-.27.18-.21.38,0,0,0,0,0,0-.35.03-.45.25-.39.57,0,0,.01-.01.01-.01-.19-.05-.22.05-.19.21,0,0,0,0,0,0-.37.02-.46.24-.39.56,0,0,0-.01,0-.01-.19-.05-.2.06-.19.2h0c-.16-.03-.2.06-.19.2,0,0,.01-.02.01-.02-.21.05-.27.18-.21.38,0,0,0,0,0,0-.36.03-.45.25-.39.56,0,0,0-.01,0-.01-.19-.05-.22.05-.19.2,0,0,0,0,0,0-.36.03-.47.23-.38.56h0c-.4,0-.43.25-.39.56,0,0,.01-.02.01-.02-.19-.04-.22.05-.19.21,0,0,0,0,0,0-.36.03-.45.24-.39.57,0,0,0-.01,0-.01-.19-.05-.2.07-.19.2,0,0,0,0,0,0-.16-.02-.2.07-.19.21,0,0,.01-.02.01-.02-.21.05-.27.18-.21.38,0,0,0,0,0,0-.36.03-.45.25-.39.57,0,0,.01-.01.01-.01-.19-.05-.22.05-.19.21,0,0,0,0,0,0-.37.03-.46.24-.38.57h0c-.24-.03-.21.13-.18.28-.32.38-.64.77-.97,1.15-.12.05-.19.13-.16.27,0,0,.01-.01.01-.01-.21.05-.27.18-.21.38h0c-.36.03-.45.24-.39.56h.01c-.19-.06-.22.04-.19.19,0,0,0,0,0,0-.36.03-.45.24-.39.56h0c-.22-.03-.2.1-.18.25l-.96,1.22c-1.69,1.53-1.82,3.31-1.1,4.76.41.83.9,1.63,1.36,2.44,5.25,9.14,10.51,18.27,15.76,27.41,3.58,6.23,7.16,12.45,10.73,18.69,1.42,2.48,2.8,4.98,4.2,7.47-2.04.38-4.08.76-6.12,1.12-5.46.97-10.92,1.94-16.38,2.91-3.72.66-7.44,1.3-11.16,1.95-.07-.1-.1-.27-.28-.16h0c.1-.34-.02-.53-.38-.56h0c.03-.14.02-.26-.19-.2,0,0,0,0,0,0,.08-.33,0-.55-.38-.56,0,0,0,0,0,0,.07-.32.01-.55-.38-.56,0,0,0,0,0,0,.05-.42-.09-.71-.56-.75,0,0,0,0,0,0,.1-.34.01-.55-.38-.56,0,0,0,0,0,0,.07-.32.01-.55-.38-.56,0,0,0,0,0,0,.05-.43-.1-.71-.56-.75,0,0,0,0,0,0,.09-.33.02-.56-.38-.56,0,0,0,0,0,0,.1-.34-.02-.53-.38-.56h0c.03-.14.02-.26-.19-.2,0,0,0,0,0,0,.08-.33,0-.55-.38-.56,0,0,0,0,0,0,.07-.32.01-.55-.38-.56,0,0,0,0,0,0,.05-.42-.09-.71-.56-.75,0,0,0,0,0,0,.1-.34.01-.55-.38-.56,0,0,0,0,0,0,.07-.32.01-.55-.38-.56,0,0,0,0,0,0,.05-.43-.1-.71-.56-.75,0,0,0,0,0,0,.09-.33.02-.56-.38-.56,0,0,0,0,0,0,.1-.34-.02-.53-.38-.56h0c.03-.14.02-.26-.19-.2,0,0,0,0,0,0,.08-.33,0-.55-.38-.56,0,0,0,0,0,0,.07-.32.01-.55-.38-.56,0,0,0,0,0,0,.05-.43-.09-.71-.56-.75,0,0,0,0,0,0,.1-.34.01-.55-.38-.56,0,0,0,0,0,0,.07-.32.01-.55-.38-.56,0,0,0,0,0,0,.05-.43-.1-.71-.56-.75,0,0,0,0,0,0,.09-.33.02-.56-.38-.56,0,0,0,0,0,0,.1-.34-.02-.53-.38-.56h0c.03-.14.02-.26-.19-.2,0,0,0,0,0,0,.08-.33,0-.55-.38-.56,0,0,0,0,0,0,.07-.32.02-.55-.38-.56h0c.05-.43-.09-.71-.56-.75,0,0,0,0,0,0,.1-.34.01-.55-.38-.56,0,0,0,0,0,0,.07-.32.01-.55-.38-.56,0,0,0,0,0,0,.05-.43-.1-.71-.56-.75,0,0,0,0,0,0,.08-.33.02-.56-.38-.56,0,0,0,0,0,0,.1-.34-.02-.53-.38-.56h0c.03-.14.02-.26-.19-.2,0,0,0,0,0,0,.08-.33,0-.55-.39-.56,0,0,0,0,0,0,.07-.32.02-.55-.38-.56,0,0,0,0,0,0,.05-.43-.09-.71-.56-.75,0,0,0,0,0,0,.1-.34,0-.55-.38-.56,0,0,0,0,0,0,.07-.32.01-.55-.38-.56,0,0,0,0,0,0,.05-.43-.1-.71-.56-.75,0,0,0,0,0,0,.08-.33.02-.56-.38-.56,0,0,0,0,0,0,.1-.34-.02-.53-.38-.56h0c.03-.14.02-.26-.19-.2,0,0,0,0,0,0,.08-.33,0-.55-.38-.56,0,0,0,0,0,0,.07-.32.02-.55-.38-.56,0,0,0,0,0,0,.05-.43-.09-.71-.56-.75,0,0,0,0,0,0,.1-.34,0-.55-.38-.56h0c.07-.32.01-.55-.38-.56,0,0,0,0,0,0,.05-.43-.1-.71-.56-.75,0,0,0,0,0,0,.08-.33.02-.56-.38-.56,0,0,0,0,0,0,.1-.34-.02-.53-.38-.56h0c.03-.14.02-.26-.19-.2,0,0,0,.01,0,.01.08-.33,0-.55-.39-.56,0,0,0,0,0,0,.07-.32.01-.55-.38-.56,0,0,0,0,0,0,.05-.43-.09-.71-.56-.75,0,0,0,0,0,0,.1-.34,0-.55-.38-.56h0c.07-.32.01-.55-.38-.56,0,0,0,0,0,0,.06-.43-.1-.71-.56-.75,0,0,0,0,0,0,.07-.19-.05-.21-.18-.21v.02c-.04-.07-.1-.15-.15-.22-.26-.34-.47-.75-.79-1.02-.79-.67-1.99-.24-2.44.81-1.48.74-1.57,2.15-1.62,3.52-.4,10.92-.78,21.84-1.16,32.76Z"/>
      <path class="cls-9" d="M84.05,239.32c-1.51,1.97-3.16,3.82-4.93,5.57-3.92,3.87-8.34,7.07-13.12,9.78-7.12,4.04-14.73,6.77-22.68,8.62-5.06,1.18-10.19,1.91-15.37,2.38-5.13.47-10.26.62-15.4.52-3.14-.06-6.29-.2-9.41-.58.07-3.43.14-6.85.21-10.28.24-11.59.48-23.17.73-34.76.25-12.05.5-24.11.75-36.16.19-9.03.39-18.07.55-27.1.01-.67.2-.95.87-1.14,6.57-1.94,13.27-3.07,20.08-3.69,6.81-.62,13.61-.96,20.45-.58,8.66.48,16.8,2.76,24.38,6.98,7.6,4.23,13.45,10.18,17.55,17.87,3.99,7.49,5.87,15.48,6,23.93.11,6.94-.34,13.81-2.25,20.53-1.49,5.23-3.67,10.16-6.4,14.85-.32.56-.96.95-.9,1.72,0,0,0,0,0,0-.47.04-.61.32-.56.75h0c-.4,0-.43.26-.39.56v-.02c-.18-.01-.19.11-.17.25ZM60.06,189.52h.03c-.05-.03-.11-.07-.16-.11-1.04-1.42-2.09-2.82-3.44-3.98-3.68-3.16-7.98-4.66-12.76-5-1.04-.07-1.82.16-2.29,1.13-1.14.77-1.51,1.9-1.58,3.2-.12,2.24-.27,4.48-.41,6.71-.48,7.49-.97,14.97-1.46,22.46-.28,4.29-.57,8.57-.85,12.86-.22,3.39-.48,6.77-.62,10.16-.09,2.21,1.44,3.54,3.57,3.2,1.54-.24,3.07-.54,4.54-1.05,8.9-3.1,14.94-9.25,18.46-17.84,2.78-6.79,3.19-13.88,1.77-21.08-.66-3.36-1.73-6.55-3.68-9.39-.19-.27-.27-.7-.73-.71h0c.12-.22,0-.33-.2-.38l.02.02c.02-.15-.02-.24-.19-.21Z"/>
      <path class="cls-9" d="M182.28,252.81c-1.39,1.74-2.76,3.48-4.33,5.07-5.3,5.39-11.39,9.47-18.73,11.56-.31.09-.6.12-.91.12-7.04,0-14.09.06-21.13-.04-2.02-.03-3.87-1-5.72-1.8-4.22-1.81-7.95-4.36-11.26-7.52-1.18-1.13-2.32-2.32-3.26-3.67,0-.13-.01-.24-.18-.26v.02c.03-.18,0-.32-.21-.38,0,0,.02.02.02.02,0-.13-.04-.22-.2-.2h0c.02-.13.03-.27-.19-.19,0,0,0,0,0,0,.11-.22.03-.34-.21-.37,0,0,.01.01.01.01,0-.24.04-.53-.36-.39,0,0,0,0,0,0,.17-.54-.29-.79-.52-1.15-.02-.06-.02-.13-.05-.18-4.96-8.51-7.64-17.79-9.14-27.45-.97-6.23-1.36-12.5-1.58-18.79-.33-9.61.16-19.19,1.06-28.75.64-6.76,1.58-13.48,2.72-20.17.13-.76.33-1.02,1.16-.99,7.29.3,14.58.55,21.87.83,3.49.13,6.98.31,10.47.41.76.02.87.3.76.96-.48,2.88-.94,5.77-1.38,8.66-.89,5.88-1.7,11.77-2.35,17.68-.61,5.58-.97,11.17-1.19,16.77-.37,9.4.07,18.74,1.96,27.98.78,3.83,1.94,7.5,4.24,10.77,2.98,4.25,8.53,4.43,11.86,1.45,2.24-2,3.7-4.52,4.82-7.25,2.61-6.36,3.8-13.08,4.83-19.81,1.69-11,2.45-22.1,2.77-33.22.26-9.04-.11-18.07-.55-27.1-.03-.64-.03-1.02.82-1.01,10.82.03,21.64.02,32.46,0,.62,0,.84.14.89.8.61,8.74.91,17.48.58,26.24-.42,11.26-1.86,22.39-4.37,33.37-2.6,11.4-6.37,22.35-12.26,32.51-.37.64-.99,1.17-.98,2,0,0,0,.01,0,.01-.88.66-1.37,1.57-1.71,2.59h0c-.41,0-.44.25-.39.56v-.02c-.2-.01-.2.12-.17.27Z"/>
      <path class="cls-2" d="M319.64,260.46c.38-7,.75-13.99,1.13-20.99.6-11.13,1.21-22.27,1.81-33.4.47-8.77.9-17.54,1.37-26.31.47-8.77.94-17.54,1.44-26.31.14-2.49.17-2.51-2.36-2.42-10.37.35-20.75.73-31.12,1.06-.72.02-.77.32-.79.9-.18,8.1-.37,16.2-.56,24.29-.23,9.69-.46,19.37-.69,29.06-.02.85-.07,1.7-.48,2.45-1,1.81-3.56,2.02-4.9.44-.37-.43-.63-.92-.88-1.43-6.13-12.75-12.26-25.5-18.39-38.25-3.19-6.64-6.38-13.28-9.55-19.94-.25-.54-.54-.72-1.13-.69-7.28.37-14.57.72-21.85,1.07-4.76.23-9.53.46-14.29.63-.85.03-1.15.23-1.17,1.15-.23,10.4-.51,20.8-.77,31.21-.24,9.34-.47,18.69-.71,28.03-.26,10.21-.52,20.43-.78,30.64-.2,7.94-.41,15.88-.62,23.82-.15.04-.29.08-.44.11-.84.15-1.16-.07-1.13-1.05.45-15.98.85-31.96,1.26-47.93.28-10.9.54-21.8.82-32.7.3-12.05.62-24.11.91-36.16.01-.59.19-.71.73-.73,5.79-.27,11.58-.57,17.38-.85,7.22-.35,14.45-.67,21.67-1.03.54-.03.81.08,1.05.59,9.4,19.59,18.82,39.16,28.24,58.74.22.45.42.91.68,1.33.34.55.84.83,1.5.73.65-.11,1.05-.51,1.19-1.15.07-.33.14-.67.15-1.01.33-14.08.65-28.16.98-42.24.1-4.33.23-8.66.32-12.99.01-.55.14-.73.72-.75,12-.38,23.99-.78,35.99-1.2.69-.02.73.21.7.78-.5,9.18-.98,18.35-1.47,27.53-.6,11.11-1.21,22.21-1.8,33.32-.47,8.8-.92,17.61-1.38,26.41-.43,8.18-.87,16.36-1.31,24.55-.06,1.12-.93.55-1.46.69Z"/>
      <path class="cls-2" d="M184.55,249.38c0-.83.61-1.37.98-2,5.89-10.16,9.66-21.11,12.26-32.51,2.51-10.99,3.95-22.11,4.37-33.37.33-8.76.03-17.5-.58-26.24-.05-.67-.27-.81-.89-.8-10.82.02-21.64.02-32.46,0-.85,0-.85.37-.82,1.01.44,9.03.81,18.06.55,27.1-.33,11.12-1.08,22.21-2.77,33.22-1.03,6.73-2.22,13.45-4.83,19.81-1.12,2.73-2.58,5.25-4.82,7.25-3.34,2.98-8.88,2.8-11.86-1.45-2.3-3.27-3.46-6.94-4.24-10.77-1.88-9.24-2.33-18.58-1.96-27.98.22-5.61.58-11.2,1.19-16.77.65-5.91,1.46-11.8,2.35-17.68.44-2.89.9-5.78,1.38-8.66.11-.66,0-.93-.76-.96-3.49-.11-6.98-.28-10.47-.41-7.29-.27-14.58-.52-21.87-.83-.83-.03-1.03.23-1.16.99-1.15,6.69-2.09,13.41-2.72,20.17-.9,9.56-1.39,19.14-1.06,28.75.21,6.29.61,12.57,1.58,18.79,1.5,9.66,4.17,18.94,9.14,27.45.03.05.04.12.05.18-.06.07-.12.13-.18.2-2.71-3.85-4.57-8.11-6.18-12.5-2.61-7.11-4.06-14.48-4.91-21.98-1.48-12.96-1.34-25.94-.31-38.91.7-8.79,1.87-17.52,3.42-26.19.11-.59.25-.78.92-.75,7.32.32,14.64.58,21.96.87,4.79.19,9.59.37,14.38.56-.76,5.01-1.55,9.96-2.26,14.91-1.08,7.55-2.07,15.11-2.57,22.73-.36,5.51-.65,11.02-.5,16.53.2,7.42.78,14.8,2.77,21.99.64,2.32,1.57,4.51,2.86,6.56,3.06,4.86,8.42,4.29,11.47.27,2.36-3.11,3.69-6.68,4.74-10.37,1.89-6.63,3.01-13.41,3.79-20.25,1.27-11.18,2.05-22.4,2-33.66-.03-7.26-.26-14.52-.7-21.77-.07-1.18-.05-1.18,1.14-1.18,11.63,0,23.26.01,34.89-.02.92,0,1.12.29,1.18,1.13.65,9.77,1.07,19.54.56,29.33-.85,16.37-3.53,32.4-8.95,47.91-2.42,6.92-5.56,13.51-9.53,19.69-.15.24-.2.59-.57.65Z"/>
      <path class="cls-2" d="M437.32,152.49c-.05-2.03-.05-2.04-2.11-2.2-7.52-.59-15.04-1.17-22.55-1.76-3.11-.24-6.21-.48-9.32-.75-.54-.05-.83.12-1.13.57-7.66,11.84-15.33,23.66-23,35.49-.69,1.07-1.39,2.14-2.13,3.18-.91,1.27-2.39,1.69-3.8,1.15-1.04-.39-1.85-1.88-1.74-3.25.7-8.72,1.41-17.44,2.1-26.16.22-2.7.37-5.41.64-8.1.09-.87-.21-1.05-.98-1.09-2.68-.12-5.35-.29-8.03-.44-7.53-.42-15.06-.83-22.59-1.27-2.12-.12-2.11-.17-2.15,1.96-.26,12.61-.53,25.23-.79,37.84-.24,11.56-.48,23.11-.72,34.67-.33,15.73-.67,31.46-1,47.19q-1.57.1-1.54-1.4c.56-26.98,1.13-53.95,1.69-80.93.3-14.14.6-28.28.89-42.43.01-.58.02-.86.78-.81,6.04.38,12.08.71,18.11,1.05,5.79.32,11.58.65,17.37.94.7.03.63.38.6.82-.27,3.38-.54,6.77-.81,10.15-.41,5.09-.82,10.18-1.23,15.28-.27,3.42-.53,6.83-.8,10.25-.02.25-.04.5-.01.74.08.7.39,1.25,1.13,1.43.7.17,1.23-.14,1.61-.68.64-.92,1.25-1.86,1.85-2.8,7.89-12.16,15.79-24.32,23.66-36.5.38-.59.74-.72,1.42-.66,5.09.44,10.19.83,15.29,1.23,6.62.52,13.24,1.05,19.86,1.55.76.06,1.04.3.92,1.06-.06.43-.07.88,0,1.31.22,1.4-.37,2.46-1.31,3.4-.06,0-.12,0-.18-.01Z"/>
      <path class="cls-2" d="M86.06,236.06c2.73-4.69,4.92-9.62,6.4-14.85,1.91-6.72,2.36-13.59,2.25-20.53-.14-8.44-2.01-16.44-6-23.93-4.1-7.69-9.95-13.64-17.55-17.87-7.57-4.22-15.72-6.5-24.38-6.98-6.83-.38-13.64-.05-20.45.58-6.81.62-13.51,1.76-20.08,3.69-.67.2-.86.47-.87,1.14-.17,9.03-.37,18.07-.55,27.1-.25,12.05-.5,24.11-.75,36.16-.24,11.59-.48,23.17-.73,34.76-.07,3.43-.14,6.85-.21,10.28-1.6.08-1.58.08-1.55-1.44.27-12.49.54-24.99.81-37.48.39-18.78.78-37.57,1.17-56.35.11-5.51.25-11.03.34-16.54.01-.61.22-.83.79-1,6.43-1.94,13-3.15,19.67-3.87,6.64-.72,13.3-1.09,19.98-.9,10.62.31,20.65,2.79,29.7,8.52,11.13,7.05,17.99,17.21,20.73,29.96,2.71,12.6,2,25.14-2.3,37.37-1.54,4.39-3.58,8.54-6.22,12.39-.06-.07-.13-.14-.19-.2Z"/>
      <path class="cls-2" d="M247,265.5c.51-8.57,1.02-17.14,1.53-25.71.54-8.88,1.08-17.76,1.62-26.64.14-2.24.26-4.47.4-6.71.07-1.16.41-2.2,1.52-2.8-.55,9.11-1.09,18.22-1.64,27.33-.4,6.78-.79,13.56-1.19,20.34-.26,4.35-.51,8.71-.77,13.06-.08,1.34-.07,1.34-1.47,1.14Z"/>
      <path class="cls-2" d="M367.71,269.51c.39-10.92.76-21.84,1.16-32.76.05-1.37.14-2.78,1.62-3.52-.18,4.32-.37,8.64-.52,12.96-.27,7.55-.53,15.11-.78,22.66-.04,1.3-.97.49-1.48.66Z"/>
      <path class="cls-1" d="M255.17,203.73c.89.15,1.12.91,1.38,1.58,1.8,4.6,3.57,9.2,5.35,13.81,5.79,15,11.57,30.01,17.36,45.01-.59.36-.79.03-.99-.48-3.77-9.8-7.54-19.6-11.32-29.39-3.89-10.09-7.79-20.17-11.69-30.26-.03-.09-.05-.18-.08-.27Z"/>
      <path class="cls-8" d="M182.84,251.99c.34-1.02.83-1.93,1.71-2.59-.32,1.03-1.02,1.81-1.71,2.59Z"/>
      <path class="cls-8" d="M86.06,236.06c.06.07.13.14.19.2-.31.54-.6,1.1-1.09,1.51-.07-.76.58-1.16.9-1.72Z"/>
      <path class="cls-8" d="M114.94,253.83c.06-.07.12-.13.18-.2.23.36.68.61.52,1.15-.34-.24-.53-.59-.7-.95Z"/>
      <path class="cls-8" d="M377.6,238.9c.46.04.62.32.56.75-.3-.16-.48-.42-.56-.75Z"/>
      <path class="cls-8" d="M374.05,233.85c.46.04.62.32.56.75-.3-.16-.48-.42-.56-.75Z"/>
      <path class="cls-8" d="M375.36,235.72c.47.04.61.32.56.75-.3-.17-.47-.43-.56-.75Z"/>
      <path class="cls-8" d="M382.47,245.81c.47.04.61.32.56.75-.3-.16-.47-.43-.56-.75Z"/>
      <path class="cls-8" d="M388.27,254.04c.46.05.61.32.56.75-.3-.16-.48-.42-.56-.75Z"/>
      <path class="cls-8" d="M389.58,255.91c.47.04.61.33.56.75-.3-.16-.47-.43-.56-.75Z"/>
      <path class="cls-8" d="M391.82,259.09c.46.04.61.32.56.75-.3-.16-.48-.42-.56-.75Z"/>
      <path class="cls-8" d="M381.16,243.94c.46.04.61.32.56.75-.3-.16-.48-.42-.56-.75Z"/>
      <path class="cls-8" d="M384.71,248.99c.46.04.61.32.56.75-.3-.16-.48-.42-.56-.75Z"/>
      <path class="cls-8" d="M395.38,264.14c.46.04.61.32.56.75-.3-.16-.48-.42-.56-.75Z"/>
      <path class="cls-8" d="M396.69,266.01c.47.04.61.33.56.75-.3-.17-.48-.42-.56-.75Z"/>
      <path class="cls-8" d="M386.02,250.86c.47.04.61.32.56.75-.3-.16-.47-.43-.56-.75Z"/>
      <path class="cls-8" d="M84.6,238.52c-.05-.43.09-.71.56-.75-.08.33-.27.58-.56.75Z"/>
      <path class="cls-8" d="M378.91,240.76c.47.04.61.32.56.75-.3-.17-.47-.43-.56-.75Z"/>
      <path class="cls-8" d="M393.14,260.96c.47.04.61.33.56.75-.3-.17-.47-.43-.56-.75Z"/>
      <path class="cls-8" d="M374.61,234.6c.39.01.45.24.38.56-.24-.11-.38-.29-.38-.56Z"/>
      <path class="cls-8" d="M374.98,235.16c.39.01.47.23.38.56-.22-.13-.37-.3-.38-.56Z"/>
      <path class="cls-8" d="M375.92,236.47c.39,0,.45.24.38.56-.23-.12-.38-.29-.38-.56Z"/>
      <path class="cls-8" d="M376.29,237.03c.39,0,.47.23.39.56-.21-.13-.37-.3-.39-.56Z"/>
      <path class="cls-8" d="M376.85,237.77c.36.03.47.23.38.56-.25-.11-.38-.29-.38-.56Z"/>
      <path class="cls-8" d="M377.23,238.34c.4,0,.46.23.38.56-.23-.12-.37-.29-.38-.56Z"/>
      <path class="cls-8" d="M84.22,239.08c-.04-.3-.01-.56.39-.56,0,.28-.2.42-.39.56Z"/>
      <path class="cls-8" d="M378.16,239.64c.39.01.45.24.38.56-.24-.11-.38-.29-.38-.56Z"/>
      <path class="cls-8" d="M378.54,240.2c.39.01.47.23.38.56-.22-.13-.37-.3-.38-.56Z"/>
      <path class="cls-8" d="M379.47,241.51c.39,0,.45.24.38.56-.23-.12-.38-.29-.38-.56Z"/>
      <path class="cls-8" d="M379.85,242.07c.39,0,.47.23.38.56-.21-.13-.37-.3-.38-.56Z"/>
      <path class="cls-8" d="M380.41,242.82c.36.03.48.22.38.56-.25-.11-.38-.29-.38-.56Z"/>
      <path class="cls-8" d="M380.78,243.38c.4,0,.46.24.38.56-.23-.12-.37-.29-.38-.56Z"/>
      <path class="cls-8" d="M381.72,244.69c.39.01.45.24.38.56-.24-.11-.38-.29-.38-.56Z"/>
      <path class="cls-8" d="M383.03,246.56c.39,0,.45.24.38.56-.23-.12-.37-.29-.38-.56Z"/>
      <path class="cls-8" d="M383.4,247.12c.39,0,.47.23.39.56-.21-.13-.37-.3-.39-.56Z"/>
      <path class="cls-8" d="M383.96,247.87c.36.03.48.22.38.56-.25-.11-.38-.29-.38-.56Z"/>
      <path class="cls-8" d="M384.34,248.43c.4,0,.46.23.38.56-.23-.12-.37-.29-.38-.56Z"/>
      <path class="cls-8" d="M385.27,249.74c.39.01.45.24.38.56-.24-.11-.38-.29-.38-.56Z"/>
      <path class="cls-8" d="M385.65,250.3c.39.01.47.23.38.56-.22-.13-.37-.3-.38-.56Z"/>
      <path class="cls-8" d="M386.58,251.61c.39,0,.45.24.38.56-.23-.12-.37-.29-.38-.56Z"/>
      <path class="cls-8" d="M182.45,252.55c-.05-.31-.02-.57.39-.56,0,.28-.19.42-.39.56Z"/>
      <path class="cls-8" d="M386.96,252.17c.39,0,.47.23.38.56-.21-.13-.37-.3-.38-.56Z"/>
      <path class="cls-8" d="M387.52,252.92c.36.03.48.22.38.56-.25-.11-.38-.29-.38-.56Z"/>
      <path class="cls-8" d="M387.89,253.48c.4,0,.46.23.38.56-.23-.12-.37-.29-.38-.56Z"/>
      <path class="cls-8" d="M388.83,254.79c.39.01.45.24.38.56-.24-.11-.38-.29-.38-.56Z"/>
      <path class="cls-8" d="M389.2,255.35c.39,0,.48.22.38.56-.22-.13-.37-.3-.38-.56Z"/>
      <path class="cls-8" d="M390.14,256.66c.39,0,.45.24.38.56-.23-.12-.37-.29-.38-.56Z"/>
      <path class="cls-8" d="M390.51,257.22c.39,0,.47.23.38.56-.21-.13-.37-.3-.38-.56Z"/>
      <path class="cls-8" d="M382.09,245.25c.39.01.47.23.38.56-.22-.13-.37-.3-.38-.56Z"/>
      <path class="cls-8" d="M391.45,258.53c.4,0,.46.23.38.56-.23-.12-.37-.29-.38-.56Z"/>
      <path class="cls-8" d="M392.38,259.84c.39.01.45.24.38.56-.24-.11-.38-.29-.38-.56Z"/>
      <path class="cls-8" d="M392.76,260.4c.39,0,.48.22.38.56-.22-.12-.37-.3-.38-.56Z"/>
      <path class="cls-8" d="M393.69,261.71c.39.01.45.24.38.56-.23-.12-.37-.29-.38-.56Z"/>
      <path class="cls-8" d="M394.07,262.27c.39,0,.47.23.38.56-.21-.13-.37-.3-.38-.56Z"/>
      <path class="cls-8" d="M394.63,263.02c.36.03.48.23.38.56-.25-.11-.38-.29-.38-.56Z"/>
      <path class="cls-8" d="M395,263.58c.4,0,.46.23.38.56-.23-.12-.37-.29-.38-.56Z"/>
      <path class="cls-8" d="M395.94,264.89c.39.01.45.24.38.56-.24-.11-.38-.29-.38-.56Z"/>
      <path class="cls-8" d="M396.31,265.45c.39,0,.48.22.38.56-.22-.12-.37-.3-.38-.56Z"/>
      <path class="cls-8" d="M397.25,266.76c.39.01.45.24.38.56-.23-.11-.37-.29-.38-.56Z"/>
      <path class="cls-8" d="M397.62,267.32c.39,0,.47.23.38.56-.21-.13-.37-.3-.38-.56Z"/>
      <path class="cls-8" d="M398.18,268.07c.36.03.47.23.38.56-.25-.11-.38-.29-.38-.56Z"/>
      <path class="cls-8" d="M391.07,257.97c.36.03.48.22.38.56-.25-.11-.38-.29-.38-.56Z"/>
      <path class="cls-8" d="M115.64,254.79c.41-.14.37.15.36.39-.3.03-.33-.18-.36-.39Z"/>
      <path class="cls-8" d="M116.56,255.91c.2.05.24.2.22.38-.15-.08-.31-.16-.22-.38Z"/>
      <path class="cls-8" d="M115.99,255.17c.24.03.31.15.21.37-.17-.07-.3-.16-.21-.37Z"/>
      <path class="cls-8" d="M376.67,237.58c.21-.07.21.05.19.2-.15.01-.18-.09-.19-.2Z"/>
      <path class="cls-8" d="M380.23,242.63c.21-.07.21.05.19.2-.15.01-.18-.09-.19-.2Z"/>
      <path class="cls-8" d="M383.78,247.68c.21-.07.21.05.19.2-.15.01-.18-.09-.19-.2Z"/>
      <path class="cls-8" d="M182.28,252.81c-.03-.15-.03-.29.18-.27-.06.09-.12.18-.18.27Z"/>
      <path class="cls-8" d="M387.34,252.72c.21-.07.21.05.19.2-.15.01-.18-.09-.19-.2Z"/>
      <path class="cls-8" d="M116.2,255.54c.22-.07.2.06.19.2-.17.04-.19-.07-.19-.2Z"/>
      <path class="cls-8" d="M84.05,239.32c-.03-.14-.02-.26.18-.25-.06.08-.12.17-.18.25Z"/>
      <path class="cls-8" d="M116.76,256.27c.16.01.18.12.18.26-.06-.09-.12-.17-.18-.26Z"/>
      <path class="cls-8" d="M390.89,257.77c.21-.07.21.05.19.2-.15.01-.18-.09-.19-.2Z"/>
      <path class="cls-8" d="M394.45,262.82c.21-.07.21.05.19.2-.15.01-.18-.09-.19-.2Z"/>
      <path class="cls-8" d="M398,267.87c.21-.07.21.05.19.2-.15.01-.18-.09-.19-.2Z"/>
      <path class="cls-8" d="M398.56,268.63c.19-.11.22.06.28.16-.18.09-.27.03-.28-.16Z"/>
      <path class="cls-8" d="M373.72,233.43c.05.07.11.15.16.22-.06-.07-.11-.15-.16-.22Z"/>
      <path class="cls-8" d="M373.87,233.64c.14,0,.26.02.18.21-.13,0-.17-.1-.18-.21Z"/>
      <path class="cls-8" d="M116.38,255.73c.16-.02.2.07.2.2-.2.06-.22-.05-.2-.2Z"/>
      <path class="cls-4" d="M41.43,181.56c.47-.97,1.25-1.2,2.29-1.13,4.78.34,9.09,1.84,12.76,5,1.35,1.16,2.41,2.56,3.44,3.98.05.04.11.08.16.12,0,0-.03-.01-.03-.01,0,.12,0,.26.19.21,0,0-.02-.02-.02-.02-.08.2,0,.33.2.39h0c.5,1.06,1.1,2.09,1.49,3.19,3.22,8.95,3.1,17.88-.88,26.53-3.95,8.59-10.51,14.29-19.91,16.41-2.7.61-3.27.08-3.09-2.65.62-9.17,1.21-18.33,1.81-27.5.53-8.17,1.05-16.34,1.58-24.51ZM50.68,216.61c-.03.21-.09.42-.1.64-.19,2.87-.38,5.75-.56,8.63-.1,1.65-.19,3.29-.3,5.14,1.97-1.41,3.69-2.76,5.1-4.47.62-.6,1.1-1.31,1.63-1.98,2.54-3.19,4.13-6.81,5.12-10.72.08-.23.18-.46.23-.7.87-3.76.93-7.55.57-11.37-.26-2.79-.86-5.48-1.9-8.09-.22-.54-.55-.83-1.08-1.03-1.64-.62-3.34-.99-5.07-1.2-1.96-.24-1.96-.22-2.15,1.69,0,.06-.02.12-.02.19-.21,3.23-.41,6.45-.62,9.68-.11,1.64-.24,3.27-.34,4.91-.18,2.9-.34,5.8-.5,8.7Z"/>
      <path class="cls-2" d="M41.43,181.56c-.53,8.17-1.05,16.34-1.58,24.51-.6,9.17-1.19,18.34-1.81,27.5-.18,2.72.39,3.26,3.09,2.65,9.4-2.12,15.96-7.82,19.91-16.41,3.98-8.65,4.09-17.58.88-26.53-.4-1.1-.99-2.13-1.49-3.19.46,0,.55.43.73.71,1.95,2.84,3.02,6.03,3.68,9.39,1.42,7.21,1.01,14.29-1.77,21.08-3.51,8.59-9.56,14.74-18.46,17.84-1.47.51-3,.81-4.54,1.05-2.13.34-3.66-.99-3.57-3.2.14-3.39.4-6.77.62-10.16.28-4.29.57-8.57.85-12.86.49-7.49.98-14.97,1.46-22.46.14-2.24.29-4.47.41-6.71.07-1.3.44-2.44,1.58-3.2Z"/>
    </g>
    <path class="cls-4" d="M167.68,28.33c.11-3.68-.12-7.35-.26-11.02-.1-2.64-.28-5.29-.46-7.93-.04-.58.19-.67.69-.66.97.03,1.93,0,2.9,0,11.69,0,23.38,0,35.08-.02.84,0,1.42.18,2.05.83,2.58,2.71,5.25,5.32,7.92,7.95.48.47.68.95.73,1.63.64,7.86.96,15.73.93,23.65.39-.15.43-.52.58-.79,6.09-11.32,14.74-19.92,26.6-25.14,7.24-3.18,14.82-4.43,22.71-4.12,7.13.28,14.06,1.49,20.73,4.06,7.84,3.03,14.48,7.77,20.02,14.06.21.23.42.46.63.68-.1.34.18.5.34.71,4.85,6.35,8.06,13.45,9.69,21.25.34,1.63.87,2.98,2.2,4.14,2.2,1.92,4.18,4.1,6.25,6.16.28.28.54.61.98.66.64,3.93,1.02,7.89,1.03,11.88.01,8.34-1.39,16.41-4.67,24.11-1.85,4.35-4.13,8.47-6.98,12.27-.36.48-1.02.75-1.1,1.44-.33.14-.54.41-.76.67-.92,1.07-1.79,2.19-2.75,3.22-2.02,2.15-4.3,4.01-6.63,5.82-.21.12-.44.22-.64.36-2.94,2.11-6.06,3.88-9.38,5.31-10.7,4.61-21.76,5.55-33.1,3.14-9.38-2-17.68-6.21-24.83-12.62-3.78-3.39-7.25-7.11-10.84-10.7-4.88-4.87-8.74-10.46-11.48-16.8-.79-1.82-1.59-3.65-2.12-5.57-.37-1.35-.79-2.69-1.19-4.03-.06,0-.11,0-.17,0-.24,1.12-.48,2.23-.72,3.35-1.05,3.69-1.98,7.41-3.37,11-.9,2.33-1.73,4.69-2.67,7.01-.81,1.99-1.75,3.93-2.63,5.89-2.05,3.85-4.31,7.57-6.7,11.21-.07.06-.15.11-.2.18-3.55,4.89-7.8,9.06-12.71,12.57-1.56.89-3.12,1.77-4.67,2.66-.42.24-.85.34-1.33.34-11.81,0-23.62,0-35.43.01-.42,0-.79-.08-1.16-.27-3.64-1.84-6.95-4.15-9.85-7.01-3.24-3.19-6.45-6.41-9.64-9.66-2.42-2.46-4.54-5.19-6.25-8.17-2.71-4.71-4.77-9.72-6.29-14.95-.66-2.27-1.21-4.57-1.96-6.88-.5,1.47-1,2.95-1.5,4.42-.31.74-.62,1.48-.94,2.21-2.55,5.82-5.96,11.07-10.23,15.78-2.77,3.06-5.95,5.66-9.17,8.22-.36-.05-.56.25-.8.42-3.92,2.69-8.04,5.01-12.4,6.91-10.46,4.57-21.46,6.9-32.79,7.83-8.74.72-17.48.61-26.21-.32-.51-.05-.85-.24-1.2-.58-2.26-2.27-4.54-4.52-6.81-6.77-.39-.4-.73-.86-1.17-1.2-.64-.49-.8-1.1-.74-1.86.18-2.38.07-4.76.15-7.14.29-8.59.41-17.19.59-25.78.33-16.5.66-33,.97-49.5.03-1.46-.14-2.93.02-4.37.25-2.38.14-4.76.21-7.14.11-3.86.22-7.72.31-11.58.06-2.52.12-5.05.16-7.57,0-.5.12-.74.66-.91,5.88-1.81,11.86-3.11,17.97-3.91,7.95-1.05,15.94-1.59,23.95-1.26,13.06.52,25.03,4.21,35.26,12.67,2.29,1.89,4.31,4.05,6.33,6.22-.09.26.11.4.23.57,4.67,6,7.82,12.72,9.51,20.12.1.44.09.95.5,1.27,1.28,1,2.31,2.26,3.5,3.36.22.2.42.63.7.52.37-.14.33-.62.33-.98,0-2.08.21-4.14.39-6.21.06-.8.12-1.6.18-2.4.14-1.88.28-3.75.41-5.63.38-3.05.77-6.1,1.14-9.15.6-4.83,1.43-9.63,2.25-14.43.09-.54.4-.53.79-.51,3.92.15,7.85.29,11.77.45,3.98.16,7.97.33,11.95.48,5.07.2,10.15.38,15.23.57.17,0,.33-.02.5.15,2.8,3.05,5.83,5.88,8.74,8.83.33.33.37.64.29,1.08-1.71,10.09-3.25,20.21-4.31,30.39-1.01,9.77-1.53,19.56-1,29.38.13,2.36.27,4.73.6,7.06.36,2.55.61,5.15,1.4,7.63-.42-.07-.7-.35-.99-.63-2.26-2.27-4.53-4.54-6.81-6.8-.23-.23-.39-.57-.86-.58.06.89.41,1.68.68,2.48.64,1.89,1.48,3.68,2.73,5.26,1.45,1.84,3.61,2.37,5.49,1.35,1.33-.12,1.99-1.14,2.75-2.03.9-.92,1.51-2.04,2.07-3.18,1.7-3.46,2.78-7.14,3.63-10.88,1.32-5.84,2.19-11.76,2.85-17.72.54-4.88.91-9.78,1.23-14.68.27-4.22.39-8.45.51-12.68.08-3.04.13-6.09-.12-9.14ZM119.19,115.29c-.02.15,0,.27.2.2l-.02-.02c-.1.23.07.3.22.38v-.02c.05.08.11.16.17.25.18.24.34.5.53.73,3.29,3.9,7.15,7.07,11.71,9.38.4.2.78.3,1.24.3,11.36,0,22.73,0,34.09,0,.52,0,1.05.07,1.55-.19,3.36-1.73,6.45-3.84,9.26-6.38,2.33-2.1,4.49-4.36,6.39-6.86.06-.08.12-.15.18-.23v.02c.12-.09.27-.17.2-.38h-.01c.18.06.2-.05.19-.19h0c.14.01.18-.08.19-.2h0c.19-.13.39-.27.39-.55,0,0,0,0,0,0,.76-.78,1.33-1.69,1.85-2.63.13-.18.26-.34.38-.53,3.97-6.21,7.13-12.82,9.57-19.77,5.06-14.43,7.69-29.34,8.76-44.55.77-10.91.36-21.8-.37-32.69-.06-.93-.35-1.14-1.27-1.14-11.6.04-23.2.02-34.8.02-1.2,0-1.22,0-1.15,1.18.44,7.25.67,14.5.7,21.77.05,11.26-.73,22.48-2,33.66-.78,6.84-1.89,13.62-3.79,20.25-1.06,3.72-2.4,7.33-4.8,10.44-3.16,4.09-8.46,4.34-11.36-.26-1.31-2.08-2.26-4.29-2.91-6.63-2-7.19-2.57-14.58-2.77-21.99-.15-5.52.14-11.03.5-16.53.47-7.18,1.39-14.31,2.38-21.44.75-5.39,1.59-10.77,2.49-16.19-1.34-.06-2.64-.14-3.95-.19-10.84-.42-21.68-.82-32.53-1.26-.57-.02-.71.12-.8.66-1.57,8.71-2.74,17.47-3.44,26.29-1.04,12.98-1.17,25.95.31,38.91.86,7.5,2.31,14.87,4.91,21.98,1.61,4.39,3.48,8.65,6.18,12.5.17.36.37.71.7.95h0c.04.21.07.43.37.39h-.01c-.1.2.04.29.2.36h0c0,.13.01.24.19.2h0ZM223.79,102.94c.06.09.13.19.19.28.33.44.64.9,1,1.32,4.14,4.8,8.91,8.84,14.48,11.92,6.92,3.84,14.3,6.18,22.21,6.62,6.11.34,12.16-.04,18.1-1.76,8.23-2.38,15.42-6.5,21.63-12.38,1.87-1.77,3.58-3.69,5.13-5.76.06-.08.12-.17.18-.25h0c.2-.13.4-.27.39-.55h0c.14.02.18-.08.19-.19h0c.2-.13.38-.28.39-.55h0c.23-.11.38-.29.37-.56,0,0,0,0,0,0,.37-.22.55-.58.71-.95.13-.17.27-.34.38-.53,4.6-7.14,7.54-14.9,8.65-23.32,1.2-9.12.81-18.16-1.92-26.99-4.46-14.4-13.49-24.78-27.5-30.68-6.24-2.62-12.77-3.92-19.5-4.29-5.09-.28-10.16-.15-15.15,1.03-10.8,2.54-19.8,8.09-27.06,16.44-8.58,9.88-13.2,21.41-14.01,34.44-.68,10.87,1.65,21.08,7.02,30.57.62,1.09,1.16,2.24,2.06,3.15,0,0,.01.01.01.01-.07.25.14.36.25.52.24.42.44.87.88,1.15h0c0,.28.16.44.38.56h0c.01.27.21.41.39.56v-.02c.05.07.12.14.18.21v-.02ZM87.62,97.72h-.01c.3.06.33-.16.37-.37h0c.22-.12.37-.29.37-.56h0c.24-.11.38-.29.37-.56,0,0,0-.01,0-.01.21-.04.28-.21.33-.39,2.64-3.85,4.68-8,6.22-12.39,4.3-12.24,5-24.77,2.3-37.37-2.74-12.75-9.61-22.91-20.73-29.96-9.05-5.74-19.08-8.22-29.7-8.53-6.68-.19-13.34.18-19.98.9-6.67.72-13.24,1.93-19.67,3.87-.57.17-.78.38-.79,1-.09,5.51-.22,11.03-.34,16.54-.39,18.78-.78,37.57-1.17,56.35-.26,12.49-.53,24.99-.81,37.48-.03,1.5-.05,1.5,1.55,1.46,2.97.36,5.96.5,8.94.57,6.54.13,13.06-.1,19.57-.91,3.92-.49,7.81-1.09,11.65-1.98,6.94-1.61,13.64-3.91,19.99-7.17,5.68-2.91,10.9-6.46,15.51-10.9,1.9-1.83,3.69-3.76,5.24-5.9.07-.08.13-.17.2-.25h0c.19-.13.39-.27.39-.55h0c.17-.07.31-.15.2-.37Z"/>
    <path class="cls-4" d="M327.98,64.47c-.45-.04-.7-.37-.98-.66-2.07-2.07-4.04-4.25-6.25-6.16-1.34-1.16-1.86-2.51-2.2-4.14-1.63-7.8-4.84-14.9-9.69-21.25-.16-.21-.44-.37-.34-.71.18-.07.29.06.39.16,3.33,3.4,6.88,6.57,9.7,10.44,3.38,4.64,5.95,9.68,7.65,15.15.73,2.34,1.51,4.69,1.73,7.16Z"/>
    <path class="cls-4" d="M104.57,43.65c-.18,2.07-.39,4.13-.39,6.21,0,.37.04.84-.33.98-.29.11-.48-.32-.7-.52-1.19-1.1-2.21-2.36-3.5-3.36-.41-.32-.4-.83-.5-1.27-1.7-7.4-4.84-14.12-9.51-20.12-.13-.16-.33-.31-.23-.57.14-.05.24.02.33.11,3.57,3.62,7.39,7.02,10.32,11.23.65.94,1.3,1.88,1.95,2.83.59,1.1,1.17,2.21,1.78,3.3.23.41.28.95.8,1.17Z"/>
    <path class="cls-4" d="M154.76,98.63c-1.88,1.02-4.04.49-5.49-1.35-1.25-1.58-2.09-3.37-2.73-5.26-.27-.8-.62-1.59-.68-2.48.47,0,.63.35.86.58,2.28,2.26,4.54,4.53,6.81,6.8.29.29.57.57.99.63.17.34.35.68.25,1.09Z"/>
    <path class="cls-7" d="M86.84,98.89c-1.55,2.14-3.34,4.07-5.24,5.9-4.61,4.43-9.83,7.98-15.51,10.9-6.35,3.26-13.05,5.55-19.99,7.17-3.84.89-7.73,1.49-11.65,1.98-6.5.81-13.03,1.04-19.57.91-2.99-.06-5.97-.2-8.94-.57.06-3.02.12-6.04.18-9.07.27-13.36.54-26.73.81-40.09.25-12.02.5-24.05.76-36.07.16-7.69.34-15.39.49-23.08.01-.66.19-.95.87-1.15,2.42-.72,4.89-1.24,7.34-1.82,4.07-.97,8.23-1.34,12.38-1.83,3.28-.38,6.58-.57,9.89-.68,6.21-.22,12.41-.2,18.54.98,6.76,1.3,13.1,3.68,18.94,7.36,6.01,3.79,10.84,8.74,14.43,14.87,4.59,7.86,6.8,16.37,6.96,25.45.13,7.22-.36,14.37-2.42,21.35-1.48,5-3.6,9.72-6.22,14.22-.11.18-.43.32-.14.6,0,0,0,.01,0,.01-.41,0-.55.16-.37.55,0,0,0,0,0,0-.46-.04-.5.2-.37.55,0,0,0,0,0,0-.34-.08-.38.13-.37.39,0,0,.01-.01.01-.01-.24.03-.37.12-.2.37,0,0,0,0,0,0-.39,0-.45.24-.39.56,0,0,0-.01,0-.01-.11-.13-.22-.04-.28.04-.02.03.05.14.08.21ZM62.87,49.09h.03c-.06-.03-.11-.07-.17-.11-.19-.24-.39-.47-.56-.73-1.47-2.22-3.45-3.88-5.68-5.28-3.08-1.93-6.52-2.67-10.07-3-.97-.09-1.75.24-2.2,1.16-1.11.78-1.49,1.91-1.56,3.22-.18,3.14-.38,6.28-.58,9.42-.49,7.52-.98,15.04-1.47,22.56-.28,4.32-.58,8.64-.86,12.96-.16,2.42-.35,4.85-.43,7.27-.07,2.17,1.43,3.52,3.51,3.18,3.3-.54,6.46-1.45,9.39-3.15,6.34-3.68,10.95-8.88,13.65-15.67,2.73-6.85,3.22-13.94,1.78-21.18-.67-3.39-1.75-6.61-3.74-9.46-.17-.24-.23-.65-.67-.62h0c.16-.25,0-.32-.2-.39l.02.02c.02-.15,0-.25-.2-.21Z"/>
    <path class="cls-7" d="M184.53,113.08c-1.9,2.5-4.06,4.75-6.39,6.86-2.81,2.54-5.9,4.65-9.26,6.38-.5.26-1.03.19-1.55.19-11.36,0-22.73,0-34.09,0-.45,0-.83-.1-1.24-.3-4.56-2.31-8.43-5.48-11.71-9.38-.19-.23-.35-.49-.53-.73,0-.13-.02-.24-.19-.25v.02c.03-.18,0-.33-.2-.38,0,0,.02.02.02.02,0-.14-.03-.23-.2-.2h0c.01-.13.05-.29-.19-.19,0,0,0,0,0,0,.15-.24.03-.34-.2-.37,0,0,.01.01.01.01.03-.27,0-.48-.37-.39,0,0,0,0,0,0,.21-.56-.31-.79-.52-1.16-1.16-2.09-2.27-4.2-3.23-6.4-4.35-9.93-6.27-20.41-7.07-31.15-.49-6.56-.67-13.13-.49-19.71.19-7.17.68-14.31,1.46-21.44.62-5.63,1.45-11.23,2.38-16.82.11-.69.38-.83,1.03-.8,4.76.21,9.53.38,14.3.56,6.01.23,12.02.47,18.04.67.8.03.98.25.86,1.03-.72,4.52-1.41,9.04-2.08,13.56-1.57,10.61-2.65,21.26-2.92,31.98-.23,9.3.63,19.31,2.24,26.43.35,1.55.76,3.08,1.31,4.57.93,2.54,2.17,4.88,4.14,6.79,1.91,1.85,4.32,2.26,6.74,1.85,2.18-.37,3.91-1.8,5.3-3.56,1.8-2.27,3.05-4.83,4-7.55,2.18-6.26,3.34-12.75,4.29-19.28,1.51-10.46,2.24-20.99,2.55-31.55.27-9.13-.08-18.26-.56-27.37-.05-.88.19-1.01.98-1,4.71.03,9.42.02,14.12.01,6.05,0,12.1,0,18.14-.01.63,0,.92.09.95.84.11,2.68.37,5.34.48,8.02.32,8.35.38,16.69-.28,25.03-.59,7.46-1.55,14.86-3.05,22.19-1.44,7.04-3.23,13.99-5.71,20.75-2.29,6.23-5.14,12.19-8.53,17.9-.59.92-1.38,1.72-1.65,2.83,0,0,0,0,0,0-.41,0-.47.23-.39.56,0,0,0-.01,0-.01-.21-.07-.21.06-.19.2,0,0,0,0,0,0-.19-.05-.22.05-.19.2,0,0,.01-.01.01-.01-.25.02-.23.2-.22.38v-.02c-.16,0-.19.09-.17.23Z"/>
    <path class="cls-7" d="M306.54,103.19c-1.54,2.07-3.25,3.98-5.13,5.76-6.2,5.88-13.4,10-21.63,12.38-5.94,1.72-12,2.1-18.1,1.76-7.91-.44-15.29-2.79-22.21-6.62-5.57-3.09-10.34-7.12-14.48-11.92-.36-.42-.67-.88-1-1.32.01-.15.02-.29-.19-.28v.02c.03-.15,0-.25-.18-.21,0,0,.01.02.01.02.06-.32.03-.57-.39-.56,0,0,0,0,0,0,.1-.34,0-.54-.38-.56,0,0,0,0,0,0,.07-.61-.43-.92-.71-1.35-.09-.16-.04-.51-.41-.32,0,0-.01-.01-.01-.01.23-.37-.09-.61-.24-.86-6.35-10.74-8.59-22.34-6.96-34.65,1.34-10.18,5.27-19.32,11.62-27.41,6.74-8.58,15.38-14.36,25.84-17.45,2.22-.65,4.47-1.13,6.77-1.32,8.75-.74,17.37-.15,25.72,2.77,7.62,2.66,14.37,6.67,19.8,12.75,6.43,7.2,10.09,15.68,11.78,25.09.56,3.13.76,6.3.81,9.49.06,4.53-.19,9.03-1.13,13.47-1.37,6.44-3.8,12.47-7.18,18.11-.2.37-.73.58-.51,1.14,0,0,0,0,0,0-.42-.01-.5.2-.37.56,0,0,0,0,0,0-.37.02-.5.21-.39.56,0,0,0-.01,0-.01-.23-.09-.21.05-.19.2,0,0,0,0,0,0-.37.03-.47.23-.39.57,0,0,0-.01,0-.01-.23-.03-.2.11-.18.25ZM279.74,56.75l.02.02c.06-.25-.09-.35-.3-.4-1.2-1.61-2.5-3.12-4.15-4.32-3.72-2.69-7.84-3.58-12.35-2.98-4.81.64-8.78,2.73-11.82,6.55-.43.54-.77,1.18-1.35,1.6-.12.07-.19.15-.15.3l.02-.02c-1.27,1.24-2.04,2.8-2.65,4.41-2.85,7.66-2.31,15.2,1.48,22.36,4.41,8.33,12.31,11.68,21.45,9.33,4.42-1.14,7.86-3.7,10.45-7.37,4.06-5.74,5.12-12.16,3.97-19.01-.55-3.28-1.57-6.39-3.48-9.16-.2-.29-.25-.76-.76-.75h0c.17-.25.03-.34-.2-.38l.02.02c.03-.15,0-.26-.2-.21Z"/>
    <path class="cls-2" d="M187.3,108.73c3.39-5.7,6.24-11.66,8.53-17.9,2.48-6.76,4.27-13.71,5.71-20.75,1.5-7.33,2.47-14.73,3.05-22.19.65-8.34.6-16.68.28-25.03-.1-2.68-.36-5.34-.48-8.02-.03-.75-.33-.84-.95-.84-6.05.02-12.1,0-18.14.01-4.71,0-9.42.02-14.12-.01-.79,0-1.03.12-.98,1,.48,9.12.84,18.24.56,27.37-.32,10.56-1.04,21.09-2.55,31.55-.94,6.53-2.1,13.02-4.29,19.28-.95,2.72-2.2,5.28-4,7.55-1.39,1.76-3.11,3.2-5.3,3.56-2.42.41-4.83,0-6.74-1.85-1.97-1.91-3.21-4.25-4.14-6.79-.55-1.49-.96-3.02-1.31-4.57-1.61-7.13-2.47-17.13-2.24-26.43.27-10.73,1.35-21.38,2.92-31.98.67-4.52,1.36-9.05,2.08-13.56.12-.78-.06-1-.86-1.03-6.01-.2-12.03-.44-18.04-.67-4.77-.18-9.53-.35-14.3-.56-.65-.03-.92.11-1.03.8-.93,5.59-1.76,11.19-2.38,16.82-.78,7.12-1.27,14.27-1.46,21.44-.18,6.58,0,13.15.49,19.71.8,10.73,2.72,21.21,7.07,31.15.96,2.2,2.08,4.31,3.23,6.4-.06.07-.12.14-.18.2-2.71-3.85-4.57-8.11-6.18-12.5-2.61-7.11-4.06-14.48-4.91-21.98-1.48-12.96-1.34-25.94-.31-38.91.7-8.82,1.87-17.58,3.44-26.29.1-.54.24-.68.8-.66,10.84.44,21.68.84,32.53,1.26,1.31.05,2.61.12,3.95.19-.9,5.42-1.75,10.8-2.49,16.19-.99,7.13-1.91,14.26-2.38,21.44-.36,5.51-.65,11.02-.5,16.53.2,7.42.77,14.8,2.77,21.99.65,2.34,1.6,4.55,2.91,6.63,2.9,4.6,8.2,4.35,11.36.26,2.4-3.11,3.74-6.72,4.8-10.44,1.89-6.63,3.01-13.41,3.79-20.25,1.27-11.18,2.05-22.4,2-33.66-.03-7.26-.26-14.52-.7-21.77-.07-1.18-.05-1.18,1.15-1.18,11.6,0,23.2.01,34.8-.02.91,0,1.21.22,1.27,1.14.73,10.89,1.14,21.78.37,32.69-1.07,15.21-3.7,30.12-8.76,44.55-2.44,6.95-5.6,13.56-9.57,19.77-.12.18-.25.35-.38.53-.07-.06-.13-.13-.2-.19Z"/>
    <path class="cls-2" d="M88.87,95.62c2.62-4.5,4.74-9.22,6.22-14.22,2.07-6.97,2.55-14.12,2.42-21.35-.16-9.08-2.37-17.59-6.96-25.45-3.58-6.14-8.41-11.09-14.43-14.87-5.83-3.67-12.18-6.05-18.94-7.36-6.13-1.18-12.33-1.2-18.54-.98-3.3.12-6.6.3-9.89.68-4.14.49-8.3.86-12.38,1.83-2.45.58-4.92,1.11-7.34,1.82-.68.2-.86.49-.87,1.15-.15,7.69-.33,15.39-.49,23.08-.26,12.02-.51,24.05-.76,36.07-.28,13.36-.54,26.73-.81,40.09-.06,3.02-.12,6.04-.18,9.07-1.6.05-1.58.05-1.55-1.46.27-12.49.54-24.99.81-37.48.39-18.78.78-37.57,1.17-56.35.11-5.51.25-11.03.34-16.54.01-.62.22-.83.79-1,6.43-1.94,13-3.15,19.67-3.87,6.64-.72,13.3-1.09,19.98-.9,10.62.31,20.64,2.79,29.7,8.53,11.13,7.05,17.99,17.21,20.73,29.96,2.71,12.6,2,25.14-2.3,37.37-1.54,4.39-3.58,8.54-6.22,12.39-.06-.07-.13-.14-.19-.21Z"/>
    <path class="cls-2" d="M308.54,99.94c3.38-5.65,5.81-11.67,7.18-18.11.94-4.44,1.2-8.94,1.13-13.47-.04-3.18-.24-6.36-.81-9.49-1.7-9.4-5.35-17.89-11.78-25.09-5.43-6.08-12.18-10.08-19.8-12.75-8.36-2.92-16.97-3.51-25.72-2.77-2.3.19-4.56.67-6.77,1.32-10.46,3.09-19.1,8.87-25.84,17.45-6.35,8.08-10.27,17.23-11.62,27.41-1.62,12.32.62,23.91,6.96,34.65.15.25.47.49.24.86-.9-.91-1.44-2.06-2.06-3.15-5.37-9.49-7.7-19.7-7.02-30.57.82-13.03,5.43-24.56,14.01-34.44,7.26-8.35,16.26-13.9,27.06-16.44,4.99-1.17,10.06-1.31,15.15-1.03,6.73.37,13.27,1.67,19.5,4.29,14.01,5.89,23.04,16.27,27.5,30.68,2.73,8.82,3.12,17.87,1.92,26.99-1.11,8.43-4.04,16.19-8.65,23.32-.12.18-.25.35-.38.53-.07-.06-.13-.12-.2-.19Z"/>
    <path class="cls-8" d="M187.3,108.73c.07.06.13.13.2.19-.52.95-1.09,1.86-1.85,2.63.27-1.1,1.06-1.9,1.65-2.83Z"/>
    <path class="cls-8" d="M222.14,100.29c.28.43.78.74.71,1.35-.43-.27-.64-.73-.88-1.15.06-.07.11-.14.17-.2Z"/>
    <path class="cls-8" d="M308.54,99.94c.07.06.13.12.2.19-.17.37-.34.73-.71.95-.22-.55.31-.77.51-1.14Z"/>
    <path class="cls-8" d="M117.74,113.4c.06-.07.12-.14.18-.2.21.37.73.6.52,1.16-.33-.24-.53-.59-.7-.95Z"/>
    <path class="cls-8" d="M88.35,96.78c-.18-.39-.04-.56.37-.55,0,.27-.12.45-.37.55Z"/>
    <path class="cls-8" d="M87.97,97.34c-.13-.36-.09-.59.37-.55,0,.27-.15.44-.37.55Z"/>
    <path class="cls-8" d="M87.02,98.65c-.06-.32,0-.55.39-.56,0,.28-.2.42-.39.56Z"/>
    <path class="cls-1" d="M222.14,100.29c-.06.07-.11.14-.17.2-.11-.16-.32-.27-.25-.52.37-.2.32.16.41.32Z"/>
    <path class="cls-8" d="M307.65,101.64c-.13-.35-.04-.57.37-.56,0,.27-.14.44-.37.56Z"/>
    <path class="cls-8" d="M222.85,101.64c.37.02.48.22.38.56-.22-.12-.38-.29-.38-.56Z"/>
    <path class="cls-8" d="M307.27,102.2c-.11-.35.01-.54.39-.56,0,.27-.19.42-.39.56Z"/>
    <path class="cls-8" d="M223.23,102.2c.42-.01.45.24.39.56-.18-.15-.38-.29-.39-.56Z"/>
    <path class="cls-8" d="M306.7,102.95c-.08-.33.02-.54.39-.57.01.28-.19.42-.39.57Z"/>
    <path class="cls-8" d="M185.26,112.12c-.09-.34-.02-.57.39-.56,0,.28-.19.42-.39.56Z"/>
    <path class="cls-8" d="M87.61,97.73c-.02-.26.02-.47.37-.39-.03.21-.06.43-.37.39Z"/>
    <path class="cls-8" d="M88.87,95.62c.06.07.13.14.19.21-.05.18-.12.35-.33.39-.29-.28.03-.41.14-.6Z"/>
    <path class="cls-8" d="M118.45,114.36c.36-.1.4.11.37.39-.3.04-.33-.18-.37-.39Z"/>
    <path class="cls-8" d="M87.41,98.09c-.16-.25-.03-.34.2-.37.11.22-.03.3-.2.37Z"/>
    <path class="cls-8" d="M86.84,98.89c-.03-.07-.11-.18-.08-.21.07-.08.17-.17.28-.04-.07.08-.13.17-.2.25Z"/>
    <path class="cls-8" d="M119.37,115.47c.21.05.23.2.22.38-.15-.09-.32-.16-.22-.38Z"/>
    <path class="cls-8" d="M118.8,114.73c.24.03.36.13.2.37-.16-.07-.3-.16-.2-.37Z"/>
    <path class="cls-8" d="M184.7,112.86c-.02-.18-.03-.35.22-.38.07.21-.08.29-.22.38Z"/>
    <path class="cls-8" d="M307.08,102.4c-.02-.15-.04-.29.19-.2-.02.11-.05.21-.19.2Z"/>
    <path class="cls-8" d="M223.61,102.75c.19-.05.21.06.2.21-.07-.07-.13-.14-.2-.21Z"/>
    <path class="cls-8" d="M223.79,102.94c.21,0,.2.14.19.28-.06-.09-.13-.19-.19-.28Z"/>
    <path class="cls-8" d="M306.54,103.19c-.02-.14-.05-.28.18-.25-.06.08-.12.17-.18.25Z"/>
    <path class="cls-8" d="M185.08,112.31c-.02-.15-.02-.27.19-.2-.02.11-.05.21-.19.2Z"/>
    <path class="cls-8" d="M184.9,112.5c-.03-.15,0-.25.19-.2,0,.13,0,.25-.19.2Z"/>
    <path class="cls-8" d="M184.53,113.08c-.02-.14.01-.24.18-.23-.06.08-.12.15-.18.23Z"/>
    <path class="cls-8" d="M119.01,115.11c.24-.1.2.06.19.2-.18.04-.19-.07-.19-.2Z"/>
    <path class="cls-8" d="M119.19,115.29c.16-.03.2.06.2.2-.2.07-.22-.05-.2-.2Z"/>
    <path class="cls-8" d="M119.57,115.84c.17,0,.19.12.19.25-.06-.08-.13-.16-.19-.25Z"/>
    <path class="cls-4" d="M44.22,41.13c.45-.92,1.23-1.25,2.2-1.16,3.56.33,6.99,1.07,10.07,3,2.24,1.4,4.22,3.06,5.68,5.28.17.25.37.49.56.73.06.04.11.08.17.12,0,0-.03-.01-.03-.01.01.12,0,.27.2.21,0,0-.02-.02-.02-.02-.08.21,0,.33.2.39,0,0,0,0,0,0,.39.81.83,1.59,1.16,2.42,3.45,8.67,3.52,17.42,0,26.02-3.78,9.22-10.47,15.36-20.37,17.67-2.79.65-3.39.12-3.17-2.72.26-3.51.47-7.02.7-10.53.4-6.15.79-12.31,1.18-18.46.49-7.64.98-15.28,1.48-22.92ZM53.27,75.97c-.03.18-.08.36-.09.55-.19,2.85-.38,5.7-.56,8.55-.12,1.84-.22,3.68-.33,5.67,1.97-1.34,3.69-2.71,5.13-4.39,3.41-3.55,5.6-7.78,6.85-12.51.05-.08.11-.15.13-.23,1.07-3.83,1.16-7.75.88-11.67-.21-3.01-.82-5.97-2.03-8.76-.17-.39-.3-.78-.79-.97-2.23-.86-4.51-1.41-6.91-1.44-.56,0-.75.13-.77.72-.05,1.3-.21,2.6-.29,3.91-.14,2.33-.26,4.65-.39,6.98-.11,1.58-.24,3.17-.34,4.75-.18,2.95-.34,5.9-.51,8.85Z"/>
    <path class="cls-2" d="M44.22,41.13c-.49,7.64-.99,15.28-1.48,22.92-.4,6.15-.79,12.31-1.18,18.46-.23,3.51-.43,7.03-.7,10.53-.21,2.84.38,3.37,3.17,2.72,9.9-2.31,16.59-8.45,20.37-17.67,3.52-8.59,3.45-17.35,0-26.02-.33-.83-.77-1.61-1.16-2.42.44-.03.5.38.67.62,2,2.85,3.07,6.07,3.74,9.46,1.44,7.24.95,14.33-1.78,21.18-2.71,6.79-7.31,11.99-13.65,15.67-2.93,1.7-6.1,2.61-9.39,3.15-2.08.34-3.57-1.01-3.51-3.18.08-2.43.27-4.85.43-7.27.28-4.32.58-8.64.86-12.96.49-7.52.98-15.04,1.47-22.56.2-3.14.41-6.28.58-9.42.07-1.3.44-2.43,1.56-3.22Z"/>
    <path class="cls-1" d="M63.24,49.66c-.2-.06-.28-.18-.2-.39.2.06.36.14.2.39Z"/>
    <path class="cls-1" d="M62.9,49.1c-.06-.04-.11-.08-.17-.12.06.04.11.08.17.12Z"/>
    <path class="cls-1" d="M63.06,49.3c-.2.06-.18-.09-.2-.21.19-.04.22.06.2.21Z"/>
    <path class="cls-4" d="M249.8,57.23c.58-.42.92-1.05,1.35-1.6,3.04-3.82,7.01-5.91,11.82-6.55,4.51-.6,8.63.29,12.35,2.98,1.65,1.19,2.95,2.7,4.15,4.32.07.15.1.33.3.4,0,0-.02-.02-.02-.02,0,.12.02.24.2.21,0,0-.02-.02-.02-.02-.06.19,0,.32.2.39,0,0,0,0,0,0,.08.2.15.4.24.59,2.81,5.38,3.69,11.05,2.37,16.99-1.17,5.29-3.7,9.74-8.32,12.8-6.05,4-15.56,4.5-21.86-2.47-6.15-6.8-7.59-18.88-3.18-26.93.14-.25.41-.46.3-.8,0,0-.02.02-.02.02.27.01.21-.15.15-.3ZM259.39,88.1c1.15.71,2.46.81,3.75.92,3.12.26,6.12-.18,8.9-1.73.23-.09.47-.16.67-.28,3.43-2.01,5.81-4.92,7.31-8.56.11-.22.25-.42.32-.65,1.04-3.01,1.6-6.05,1.36-9.29-.18-2.48-.64-4.84-1.4-7.18-.22-.67-.62-1.01-1.28-1.18-2.67-.7-5.37-.8-8.05-.19-5.88,1.33-9.98,4.79-12.16,10.46-1,2.52-1.53,5.11-1.37,7.83,0,1.33-.12,2.67.25,3.97-.44,0-.65-.34-.91-.59-2.27-2.27-4.54-4.54-6.82-6.81-.15-.15-.31-.31-.47-.46-.11-.11-.25-.22-.41-.14-.23.11-.11.3-.08.48.66,3.11,1.87,5.99,3.83,8.51,1.72,2.22,3.81,4,6.54,4.89Z"/>
    <path class="cls-2" d="M249.66,57.51c.11.35-.17.56-.3.8-4.41,8.05-2.97,20.13,3.18,26.93,6.3,6.97,15.81,6.47,21.86,2.47,4.62-3.05,7.15-7.51,8.32-12.8,1.32-5.94.44-11.61-2.37-16.99-.1-.19-.16-.39-.24-.59.51-.01.57.47.76.75,1.91,2.76,2.93,5.88,3.48,9.16,1.15,6.85.09,13.27-3.97,19.01-2.59,3.67-6.03,6.23-10.45,7.37-9.13,2.35-17.03-1-21.45-9.33-3.79-7.16-4.33-14.7-1.48-22.36.6-1.62,1.38-3.17,2.65-4.41Z"/>
    <path class="cls-1" d="M280.11,57.33c-.19-.06-.26-.19-.2-.39.23.04.37.14.2.39Z"/>
    <path class="cls-1" d="M279.75,56.77c-.19-.06-.22-.24-.3-.4.21.05.36.15.3.4Z"/>
    <path class="cls-1" d="M279.93,56.96c-.18.03-.19-.09-.2-.21.19-.05.22.06.2.21Z"/>
    <path class="cls-1" d="M249.8,57.23c.05.15.12.31-.15.3-.04-.15.03-.23.15-.3Z"/>
    <path class="cls-4" d="M257.71,82.22c.44,2,1.05,3.94,1.69,5.88-2.73-.9-4.81-2.68-6.54-4.89-1.96-2.52-3.16-5.4-3.83-8.51-.04-.18-.15-.37.08-.48.16-.08.3.04.41.14.16.15.31.3.47.46,2.27,2.27,4.54,4.54,6.82,6.81.26.26.47.6.91.59Z"/>
  </g>
</svg>