<?xml version="1.0" encoding="UTF-8"?>
<svg id="Camada_1" data-name="Camada 1" xmlns="http://www.w3.org/2000/svg" viewBox="0 0 534.7 326.34">
  <defs>
    <style>
      .cls-1 {
        stroke-width: .25px;
      }

      .cls-1, .cls-2, .cls-3 {
        stroke: #fff;
        stroke-miterlimit: 10;
      }

      .cls-1, .cls-2, .cls-3, .cls-4 {
        fill: #fff;
      }

      .cls-5 {
        fill: #e61282;
      }

      .cls-5, .cls-4, .cls-6, .cls-7 {
        stroke-width: 0px;
      }

      .cls-2 {
        stroke-width: .5px;
      }

      .cls-3 {
        stroke-width: .75px;
      }

      .cls-6 {
        fill: #58c2df;
      }

      .cls-7 {
        fill: #0b0d0d;
      }
    </style>
  </defs>
  <g>
    <g>
      <g>
        <path class="cls-4" d="M390.31,52.83c1.31-4.34,4.14-7.55,8.49-9.63.13-.06.23-.17.28-.3,9.73-23.74,31.71-40.24,57.34-42.59,10.52-.97,20.51.32,29.96,3.87,18.97,7.12,32.4,20.25,40.3,39.4.06.13.15.24.27.31,3.64,2.21,6.02,5.26,7.12,9.12.41,1.42.6,3.59.59,6.5-.01,5.55,0,11.09.04,16.64.05,7.14-4.73,13.39-11.61,15.04-3.16.76-7.6.45-11.25.43-.18,0-.23-.08-.15-.24,7.56-15.32,7.88-33.56.12-48.9-.19-.38-.07-.57.35-.56l3.33.04c.18,0,.23-.08.14-.24-4.85-9.48-11.64-17.06-20.37-22.73-29.58-19.23-69.34-8.7-85.46,22.77-.04.08.02.19.12.19l2.54-.04c.2,0,.25.08.17.27-7.74,16.4-7.74,32.8,0,49.19.08.16.03.24-.16.24-2.62.03-5.25.03-7.87,0-6.63-.1-12.33-4.46-14.28-10.7-.43-1.37-.65-3.37-.67-6.02-.03-5.43-.04-10.86,0-16.29.01-2.48.23-4.4.65-5.77Z"/>
        <path class="cls-4" d="M416.57,47.52c9.87-23.58,35.98-35.99,60.55-28.66,19.32,5.76,33.33,22.67,35.45,42.73,2.45,23.13-11.6,45.1-33.53,52.59-11.23,3.83-22.56,3.64-34-.59-.14-.05-.26-.02-.37.08l-14.91,14.89c-.11.11-.3.03-.3-.12v-24.04c.01-.15-.04-.28-.16-.38-15.8-14.43-20.99-36.79-12.73-56.5Z"/>
        <path class="cls-4" d="M442.19,121.41c.09-.09.22-.12.34-.08,25.81,9.06,53.59.13,69.23-22.25.1-.14.24-.21.41-.21h10.35c.13,0,.22.15.15.26-11.21,19.69-30.86,32.59-53.59,34.72-.17.01-.25.11-.25.28v12.19c0,.15.12.27.27.27,5.2.16,10.29.96,15.26,2.43,2.4.71,7.79,3.38,3.03,6.03-2.21,1.23-4.58,2.08-7.11,2.53-11.31,2.04-22.61,2.1-33.9.18-2.82-.48-7.31-1.49-9.31-3.47-3.45-3.41,5.13-5.7,6.69-6.05,4.15-.95,8.39-1.5,12.71-1.66.15,0,.23-.08.22-.23l-.03-12.23c0-.14-.07-.22-.21-.23-7.26-.69-14.24-2.48-20.93-5.35-.16-.07-.2-.28-.08-.4l6.73-6.73Z"/>
        <path class="cls-4" d="M403.06,98.87h10.33c.14,0,.25.06.33.17,3.33,4.86,7.3,9.13,11.9,12.8.24.19.37.47.37.77l.02,10.6c0,.14-.15.22-.27.15-9.27-5.93-17.61-14.43-22.86-24.2-.07-.13.02-.29.17-.29Z"/>
      </g>
      <path class="cls-5" d="M493.35,32.99c-8.81-8.08-19.2-11.79-31.19-12.07-.15,0-.26.13-.22.27,4.65,21.72,6.96,43.7,6.92,65.92,0,.15.07.21.22.18l9.69-1.9c.18-.04.28-.15.29-.33.41-6.29,2.16-12.18,5.24-17.66,3.12-5.54,7.41-11.83,9.97-18.31,1.7-4.29,1.94-8.71.73-13.27-.34-1.28-.65-1.91-1.66-2.84h0Z"/>
      <path class="cls-6" d="M457.48,87.63c0,.1.09.17.19.18,3.16.07,6.32-.06,9.47-.4.13-.02.2-.09.2-.22.11-22.23-2.17-44.2-6.84-65.92-.03-.15-.13-.22-.28-.22-.62,0-1.05.01-1.31.04-12.54,1.29-22.8,6.68-30.78,16.18-.13.15-.18.35-.15.54.74,4.82,2.47,9.28,5.18,13.4,4.84,7.33,12.45,12.88,17.86,20.1,3.62,4.84,5.78,10.28,6.46,16.34h0Z"/>
      <path class="cls-5" d="M507.52,68.11c.58-11.5-3.22-22.64-10.64-31.43-.06-.07-.18-.02-.16.08,1.59,7.75-1.39,15.06-5.48,21.59-3.02,4.82-5.55,9.41-7.61,13.77-1.8,3.82-2.82,7.96-3.05,12.42,0,.15.06.21.21.17,10.13-2.91,18.86-8.11,26.19-15.6.3-.31.52-.52.54-.99h0Z"/>
      <path class="cls-6" d="M455.98,87.49c-1.1-11.46-8.49-18.8-16.36-26.48-6.2-6.06-10.99-12.64-12.84-21.63-.04-.21-.13-.23-.25-.05-7.13,10.02-9.82,21.19-8.08,33.51.05.35.2.63.44.86,9.86,9.17,23.57,13.63,36.9,14,.13,0,.19-.06.18-.19h0Z"/>
      <path class="cls-5" d="M493.03,98.81c7.76-7.15,12.91-16.95,14.15-27.46.03-.21-.04-.24-.19-.1-7.51,7.14-16.25,12.12-26.25,14.93-.11.03-.18.13-.18.24.16,7.34,3.54,12.24,11.32,12.64.55.03.93-.05,1.15-.26h0Z"/>
      <path class="cls-6" d="M419.05,75.99c2.66,11.12,9.01,20.25,18.48,26.85.87.61,1.71.91,2.54.92,2.35.02,4.95-.25,7.11-1.08,5.42-2.09,8.46-6.36,9.13-12.81.04-.4-.26-.75-.67-.77-12.94-.39-26.43-4.63-36.44-13.21-.07-.06-.18,0-.16.1h0Z"/>
      <path class="cls-5" d="M478.54,107.75l4.9-2.18c2.66-1.42,5.14-3.05,7.46-4.89.16-.13.14-.21-.06-.24-.5-.07-.99-.16-1.46-.24-6.99-1.26-9.95-6.68-10.23-13.32,0-.15-.08-.2-.22-.16-3.28.87-6.61,1.51-9.98,1.92-.12.01-.21.11-.22.24-.06,7.2-.79,14.34-2.19,21.4-.02.11.02.17.14.16,4.05-.36,8.01-1.26,11.86-2.69h0Z"/>
      <path class="cls-6" d="M467.01,88.94l-9.17.4c-.13,0-.19.07-.2.2-.35,7.66-4.03,12.6-11.04,14.84-1.48.47-3.19.66-4.84.77-.3.02-.31.1-.05.24,7.22,3.77,14.91,5.51,23.09,5.2.13,0,.21-.07.24-.2,1.39-7,2.13-14.07,2.2-21.22,0-.13-.11-.24-.24-.23h0Z"/>
    </g>
    <g id="DUODUNK-LOGO.tif">
      <g>
        <path class="cls-5" d="M383.14,87.28c0-.31-.02-.62-.03-.93,0-.39-.02-.77-.05-1.17-.02-.44-.04-.89-.07-1.34,0-.13-.02-.27-.02-.41-.03-.47-.07-.95-.11-1.42v-.02s0-.1-.02-.15v-.02c-.05-.58-.11-1.16-.16-1.74-1.05-10.01-4.05-19.34-9.45-27.85-1.59-2.51-3.3-4.89-5.64-6.85-1.18-.99-2.34-2.02-3.43-3.12-.96-.96-1.87-1.98-2.68-3.06-6.45-8.58-14.48-15.08-24.36-19.3-8.26-3.53-16.92-5.17-25.88-5.52-7.58-.29-14.98.55-22.15,3.06-15.91,5.57-27.4,16.22-35.36,30.88-.18.33-.37.65-.67,1.19-.04-.39-.07-.52-.07-.65-.06-1.47-.12-2.94-.18-4.41-.1-2.31-.19-4.63-.28-6.93-.06-1.21-.11-2.43-.15-3.64-.02-.4-.03-.8-.05-1.2-.15-3.6-.29-7.2-.42-10.8,0-.11,0-.2-.02-.3,0-.09-.02-.19-.05-.28-.02-.08-.03-.15-.06-.23-.1-.32-.25-.6-.47-.87-.08-.11-.18-.21-.29-.32-3.1-3.06-6.22-6.11-9.22-9.26-.68-.72-1.29-.94-2.21-.94h-2.49c-13.77.02-27.54.02-41.31.02h-1.35c0,.38,0,.63,0,.87.29,7.37.61,14.72.86,22.08.32,9.55-.02,19.1-.76,28.62-.55,7-1.3,14-2.13,20.97-.74,6.26-1.93,12.45-3.72,18.51-1.19,4.04-2.61,7.99-5.26,11.37-.84,1.06-1.79,1.98-3.15,2.49-.13-.42-.24-.76-.33-1.11-1.35-5.74-2-11.58-2.35-17.45-.73-12.76.02-25.48,1.61-38.14,1.32-10.54,3.03-21.04,4.53-31.56.06-.38-.11-.94-.38-1.21-3.34-3.43-6.72-6.83-10.11-10.22-.15-.15-.43-.23-.65-.24-5.88-.23-11.76-.44-17.63-.67-4.68-.18-9.35-.38-14.04-.57-4.5-.18-9-.34-13.49-.51-.47-.02-.91-.08-1.03.63-.85,5.47-1.85,10.92-2.57,16.41-.06.46-.12.91-.17,1.38-.08.66-.16,1.31-.24,1.97-.07.51-.12,1.03-.18,1.55-.02.14-.03.28-.05.42-.1.94-.2,1.88-.29,2.82-.09.86-.18,1.73-.26,2.59-.14,1.38-.28,2.75-.42,4.13-.07.77-.15,1.55-.24,2.32-.11,1.09-.2,2.19-.29,3.29-.43-.3-.65-.65-.82-1.03-2.29-4.95-5.66-9.04-9.4-12.83-1.25-1.26-2.53-2.49-3.84-3.72-.45-.42-.99-.76-1.33-1.24-2.71-3.83-5.94-7.16-9.52-10.15-11.86-9.91-25.81-14.22-41.02-14.85-9.37-.38-18.71.24-28.01,1.47-7.05.93-13.97,2.42-20.76,4.51-.67.21-.92.47-.93,1.18-.11,6.14-.26,12.26-.4,18.4-.17,7.94-.35,15.9-.51,23.84-.28,13.1-.55,26.21-.81,39.31-.17,7.94-.35,15.9-.52,23.84-.12,5.7-.24,11.39-.36,17.09-.07,3.24-.13,6.47-.19,9.71,0,.44.22.99.52,1.31,3.09,3.18,6.24,6.3,9.31,9.48.67.68,1.4.98,2.28,1.04,7.16.57,14.32.99,21.52.74,7.81-.27,15.55-1,23.22-2.46,10.63-2.02,20.83-5.33,30.35-10.55,13.59-7.44,24.07-17.85,30.53-32.06,1.27-2.79,2.31-5.7,3.34-8.27,1.48,4.67,2.89,9.65,4.64,14.5,3.02,8.37,7.62,15.77,14.11,21.94,3.02,2.88,5.92,5.89,8.87,8.85,3.41,3.43,7.28,6.23,11.57,8.41.56.29,1.24.46,1.86.46,13.51.02,27.02.02,40.53-.03.96,0,2.01-.28,2.87-.73,7.18-3.73,13.06-9.03,17.98-15.38,7.46-9.64,12.59-20.5,16.39-32,1.61-4.88,2.92-9.87,4.34-14.77.02.05.04.11.06.17.05.19.11.41.18.64,3.05,11.38,8.99,25.69,17.37,34.03,3.45,3.44,36.25,20.35,49.18,21.2,6.62.43,13.39.4,19.77-1.33,22.11-6.01,37.62-17.68,45.27-39,2.91-8.12,3.99-16.45,3.79-24.92ZM77.15,92.78c-3.91,10.32-10.92,17.75-21.39,21.63-1.82.67-3.76,1.04-5.69,1.39-2.68.46-4.49-1.12-4.38-3.84.19-4.13.48-8.25.75-12.38.24-3.88.51-7.75.77-11.62.43-6.52.87-13.03,1.29-19.55.24-3.76.43-7.53.69-11.29.17-2.49.34-5,.69-7.46.11-.78.82-1.47,1.25-2.21.11.06.22.11.33.17-.26,4.15-.51,8.3-.78,12.45-.48,7.39-.96,14.77-1.44,22.16-.55,8.55-1.08,17.1-1.68,25.65-.24,3.39.42,4.03,3.72,3.22,13.66-3.37,21.76-12.36,25.33-25.59,2.3-8.53,1.74-17.05-1.65-25.29-.29-.7-.66-1.37-1.03-2.04-.36-.66-.77-1.29-1.15-1.93.09-.06.17-.11.26-.18.9,1.35,1.86,2.66,2.68,4.07,2.13,3.63,2.97,7.68,3.58,11.77,1.06,7.13.38,14.15-2.17,20.87ZM60.86,105.28c.15-2.49.27-4.72.42-6.95.57-8.61,1.13-17.23,1.72-25.84.29-4.3.61-8.6.9-12.92.04-.59.24-.85.85-.81,2.73.15,5.39.64,7.9,1.74.4.18.73.69.9,1.12,1.28,3.02,1.94,6.19,2.27,9.45.64,6.4.07,12.65-2.37,18.66-2.58,6.36-6.65,11.51-12.58,15.54ZM108.93,101.74c-1.91,4.34-4.29,8.4-7.13,12.19-.25.33-.52.65-.95.86.7-1.08,1.43-2.13,2.09-3.23,4.99-8.12,8.3-16.85,9.67-26.31.81-5.55,1.03-11.12.84-16.7-.39-11.29-3.45-21.77-9.73-31.23-4.84-7.29-11.22-12.86-18.95-16.91-7.8-4.08-16.08-6.49-24.86-7.25-6.49-.56-12.98-.38-19.47-.02-6.81.39-13.59,1.11-20.28,2.47-3.3.67-6.54,1.61-9.81,2.39-.72.17-.76.62-.77,1.2-.07,4.32-.16,8.63-.25,12.95-.3,14.12-.59,28.23-.9,42.36-.15,6.82-.29,13.64-.43,20.46-.29,14.07-.58,28.15-.86,42.23-.05,2.32-.1,4.64-.15,6.97,0,.38-.04.77-.07,1.3-.7-.05-1.23-.08-1.85-.12,0-.46,0-.86,0-1.25.42-20.07.83-40.14,1.26-60.22.48-22.9.98-45.8,1.44-68.7.02-.78.29-1.04.99-1.25,7.99-2.4,16.15-3.84,24.44-4.66,7.24-.72,14.49-1.09,21.76-.87,12.76.4,24.76,3.46,35.5,10.59,12.3,8.16,20,19.65,23.06,33.97,3.56,16.66,2.32,33.05-4.59,48.8ZM239.96,53.14c-1.27,15.9-4.05,31.5-9,46.68-3.45,10.57-8.16,20.55-14.64,29.64-.49.68-1.01,1.32-1.52,1.99-.05-.05-.1-.1-.15-.14.89-1.36,1.8-2.71,2.66-4.07,6.54-10.34,11.07-21.54,14.28-33.31,2.14-7.84,3.81-15.77,4.96-23.81,1.1-7.68,1.99-15.4,2.01-23.17,0-2.96,0-5.92-.04-8.87,0-1.44-.02-2.88-.05-4.31-.05-3.88-.12-7.76-.19-11.64-.03-1.99-.28-3.97-.43-6.06h-39.49c0,1.17-.02,2.31,0,3.46.2,7.11.54,14.22.58,21.33.04,6.02-.1,12.05-.47,18.07-.47,7.45-1.11,14.9-1.96,22.32-.91,8.03-2.29,15.99-4.56,23.76-1.28,4.38-2.93,8.57-5.84,12.17-2,2.47-4.5,3.99-7.72,4.1-3.44.11-6.01-1.47-7.99-4.22-2.65-3.67-3.92-7.88-4.82-12.24-2.35-11.33-2.86-22.78-2.21-34.31.35-6.27.71-12.53,1.37-18.77.72-6.74,1.76-13.44,2.71-20.14.47-3.37,1.03-6.73,1.56-10.1.02-.18,0-.36,0-.71-13.18-.51-26.32-1.03-39.56-1.56-.37,2.22-.77,4.31-1.04,6.42-.82,6.18-1.68,12.35-2.35,18.55-.48,4.51-.77,9.04-.97,13.57-.23,5.22-.42,10.45-.34,15.67.06,3.27.15,6.54.32,9.79,0,.19.02.38.02.58.05.88.11,1.77.16,2.66.02.29.04.57.06.85.11,1.52.24,3.02.39,4.53,0,.02,0,.02,0,.04.07.77.15,1.53.24,2.29.09.75.18,1.5.28,2.24.26,1.94.56,3.88.92,5.8.1.55.2,1.1.31,1.65.21,1.13.46,2.26.72,3.38.11.51.24,1.02.37,1.53,0,.02,0,.04.02.06.1.42.2.84.31,1.25.91,3.52,1.97,6.98,3.26,10.36.16.44.33.87.51,1.31,0,.03.02.07.04.1.18.45.37.9.55,1.34.15.36.31.72.47,1.08.27.61.55,1.23.85,1.83.19.37.37.75.56,1.12.2.39.4.78.61,1.17.31.58.63,1.16.96,1.73.2.34.39.68.59,1.01.51.86,1.05,1.7,1.62,2.53.18.27.34.55.37.95-.27-.33-.56-.64-.81-.98-4.95-6.59-8.01-14.1-10.34-21.92-.16-.55-.33-1.12-.48-1.67-.12-.44-.24-.89-.36-1.34-.27-1-.52-2.01-.75-3.02-.09-.37-.17-.73-.25-1.11-.34-1.58-.65-3.16-.93-4.75-.11-.59-.2-1.18-.3-1.78-.16-1.03-.32-2.05-.46-3.08-.04-.28-.08-.55-.11-.83-.05-.37-.1-.75-.15-1.13-.15-1.11-.27-2.22-.38-3.33-.08-.81-.16-1.63-.24-2.44-.15-1.6-.27-3.2-.37-4.8-.2-3.01-.33-6.04-.4-9.05,0-.27-.02-.54-.02-.81,0-.19,0-.37,0-.55-.02-.43-.02-.86-.02-1.29,0-.22,0-.44,0-.66t0-.02s0,0,0-.02c0,0,0-.02,0-.03t0-.02s0,0,0-.02c0,0,0,0,0-.02t0-.02s0,0,0-.02t0-.02h0s0-.02,0-.02h0s0-.02,0-.02t0-.02c-.02-1.08-.02-2.17,0-3.26t0-.02s0-.02,0-.03t0-.02s0,0,0-.02t0-.02s0,0,0-.02t0-.02s0,0,0-.02t0-.02s0-.02,0-.02t0-.02s0,0,0-.02c0,0,0-.02,0-.03h0s0-.03,0-.04h0s0-.03,0-.05c0,0,0-.02,0-.02t0-.02s0-.02,0-.03c0-.15,0-.32,0-.47,0-.06,0-.11,0-.17t0-.02s0,0,0,0h0s0-.02,0-.02t0-.02s0,0,0-.02t0-.02s0-.02,0-.02h0s0-.02,0-.02t0-.02h0s0-.03,0-.05t0-.02c0-.19,0-.37,0-.55,0-.23,0-.47.02-.71.06-3.72-.43-6.65.41-11.18.24-1.28.15-2.61.25-3.92.07-1.06.15-2.13.24-3.19.03-.42.07-.83.11-1.24,0-.15.02-.31.04-.46.08-.99.17-1.99.28-2.98.02-.18.03-.36.06-.53.11-1.25.24-2.49.39-3.73.12-1.13.26-2.27.4-3.4.32-2.61.68-5.21,1.06-7.8.07-.5.15-.99.23-1.48.16-1.09.33-2.18.51-3.28.33-2,.68-4,1.04-6.1,14.43.55,28.81,1.11,43.26,1.66-.61,3.9-1.25,7.68-1.8,11.47-1.6,10.81-3.16,21.61-3.86,32.52-.51,8.02-.9,16.03-.37,24.05.51,7.9,1.17,15.8,3.92,23.31.74,2.02,1.81,3.97,3.02,5.75,2.73,4.03,7.76,4.47,11.33,1.15,2.22-2.08,3.63-4.69,4.79-7.46,2.4-5.68,3.69-11.67,4.8-17.7,1.77-9.58,2.57-19.27,3.32-28.97,1.16-15.1.84-30.18.12-45.28-.06-1.19-.14-2.38-.22-3.68h43.25c.11,1.34.25,2.66.33,3.99.77,12.52,1.09,25.02.09,37.55ZM331.49,87.13c-1.01,7.68-4.16,14.17-10.72,18.63-5.27,3.59-11.13,4.52-17.35,3.24-6.91-1.43-11.43-5.89-14.51-11.91-2.81-5.51-3.86-11.46-3.23-17.61.5-4.78,1.87-9.31,4.95-13.14.14-.17.28-.34.42-.51.04-.05.11-.08.17-.11-1.75,2.97-2.96,6.11-3.45,9.48-.02.18-.05.35-.07.53-.96,7.2.2,13.92,3.99,19.87h0c.66,1.05,1.41,2.06,2.24,3.06,6.16,7.35,17.32,8.6,25.62,3.08,5.35-3.56,8.3-8.72,9.66-14.85,1.64-7.46.45-14.49-3.45-21.05-.13-.22-.24-.44-.36-.66,0-.02.03-.06.11-.16,1.7,1.97,3.05,4.15,3.96,6.55,1.91,5.02,2.71,10.21,2,15.57ZM303.25,102.74c-.86-.24-1.34-.68-1.64-1.52-1.21-3.41-1.89-6.92-1.87-10.55.11-6.8,2.17-12.79,7.59-17.23,5.13-4.21,11.03-5.17,17.4-3.72.55.12,1.25.61,1.43,1.09,3.19,8.75,2.71,17.17-2.81,24.9-3.52,4.93-9.21,7.67-15.07,7.68h-.06c-.29,0-.56,0-.85-.02-.13,0-.26-.02-.4-.02-.22,0-.45-.02-.67-.06-1.02-.11-2.04-.29-3.05-.57ZM362.23,111.8c-1.65,3.04-3.72,5.87-5.6,8.78-.11-.07-.22-.14-.33-.21.81-1.25,1.64-2.49,2.44-3.74,4.42-6.84,7.33-14.31,8.96-22.24,1.3-6.36,1.42-12.82,1.03-19.29-.34-5.65-1.31-11.16-3.17-16.48-2.51-7.23-6.07-13.84-11.22-19.58-6.01-6.68-13.37-11.25-21.71-14.41-9.19-3.48-18.74-4.48-28.45-3.94-12.38.69-23.18,5.51-32.56,13.49-10.32,8.78-16.84,19.98-20.31,33-.18.66-.34,1.32-.49,1.99-.07.33-.15.66-.21.99-.16.76-.3,1.52-.43,2.29-.08.51-.16,1.01-.23,1.52-.02.12-.03.24-.05.37-.21,1.61-.36,3.22-.45,4.84-.02.31-.03.62-.04.93-.02.22-.02.44-.02.66-.03.91-.05,1.83-.03,2.74,0,.49,0,.98.02,1.47,0,.35.02.7.03,1.05,0,.03,0,.07,0,.11,0,.51.03,1.01.06,1.52.02.52.06,1.03.11,1.55.03.45.07.9.12,1.34.02.21.05.43.07.64.11.93.24,1.85.4,2.76.07.37.13.74.2,1.12,0,.07.02.12.03.17.08.42.17.83.26,1.24.09.43.19.86.29,1.28.31,1.27.66,2.53,1.05,3.77.13.42.27.82.41,1.24s.29.82.43,1.23c.15.42.3.82.46,1.23.29.75.59,1.49.91,2.23.11.27.23.53.34.79.17.4.35.79.54,1.19.02.04.03.08.05.11.17.36.34.72.51,1.08.29.6.59,1.21.9,1.8,1.41,2.73,3.16,5.28,4.75,7.91-.07.06-.14.12-.21.18-1.81-2.79-3.76-5.49-5.39-8.38-6.23-10.95-8.88-22.78-8.11-35.34.08-1.31.2-2.62.34-3.9.02-.23.06-.46.08-.68.03-.25.07-.51.1-.76.03-.25.07-.5.11-.75v-.04c.06-.39.12-.78.19-1.17.06-.35.11-.71.18-1.06.05-.28.1-.56.15-.85.02-.15.06-.3.09-.45.05-.24.1-.48.15-.72.11-.54.23-1.07.36-1.6.07-.3.14-.59.21-.9.11-.47.24-.94.37-1.4.11-.37.21-.76.32-1.13.33-1.12.69-2.25,1.08-3.35.13-.37.26-.74.4-1.11.11-.32.24-.64.37-.96.74-1.91,1.57-3.76,2.5-5.59.2-.4.41-.81.63-1.21.2-.4.42-.8.65-1.2.87-1.57,1.83-3.11,2.84-4.63.3-.44.61-.89.92-1.33.24-.33.48-.67.73-1,.28-.37.55-.74.85-1.12.86-1.12,1.75-2.21,2.69-3.29,8.72-10.05,19.55-16.63,32.6-19.41,6.45-1.38,12.98-1.34,19.52-.76,8.25.72,16.13,2.78,23.56,6.5,14.26,7.15,23.66,18.55,28.09,33.7,5.57,18.99,4.16,37.54-5.44,55.13ZM127.16,102.23c.1.55.2,1.1.31,1.65.21,1.13.46,2.26.72,3.38.11.51.24,1.02.37,1.53,1.21,2.2,2.91,5.18,4.75,8.17-.1-.5-5.88-13.84-6.14-14.73Z"/>
        <path class="cls-4" d="M523.62,180.7c0-.39-.19-.86-.46-1.13-3.37-3.41-6.76-6.8-10.16-10.18-.19-.19-.46-.38-.7-.41-1.8-.18-3.61-.32-5.41-.46-3.1-.24-6.22-.46-9.32-.7-3.25-.26-6.49-.56-9.75-.82-3.14-.24-6.28-.46-9.43-.69-3.46-.27-6.93-.53-10.4-.86-.81-.07-1.21.25-1.63.9-5.32,8.25-10.67,16.48-16.01,24.72-.2.3-.42.59-.81,1.13.33-4.34.68-8.31.94-12.3.03-.49-.18-1.15-.52-1.49-3.3-3.37-6.65-6.71-10-10.02-.25-.25-.66-.46-1-.49-1.81-.12-3.63-.16-5.44-.25-2.86-.15-5.72-.31-8.58-.47-4.89-.28-9.78-.55-14.67-.84-3.19-.19-6.36-.4-9.55-.58-2.49-.14-4.98-.24-7.74-.36v13.84c-3.46-3.1-6.6-6.27-9.79-9.4-.37-.37-1.04-.65-1.57-.64-5.66.17-11.31.42-16.97.61-7.69.25-15.38.46-23.08.69-1.98.07-3.95.19-6.01.29-.46,18.72-.91,37.35-1.38,56.29-.3-.6-.47-.93-.63-1.25-6.89-14.3-13.83-28.57-20.62-42.92-1.64-3.46-3.55-6.59-6.45-9.12-1.53-1.34-3.01-2.77-4.29-4.34-1.74-2.12-3.63-2.91-6.53-2.61-5.98.64-12.02.71-18.03.99-6.84.32-13.7.59-20.54.91-2.49.12-4.98.29-7.55.44-.15,5.45-.32,10.81-.46,16.17-.11-1.03-.95-1.65-1.65-2.34-3.03-3.03-6.05-6.07-9.11-9.07-.36-.35-.97-.62-1.47-.62-14.85-.03-29.71-.04-44.56-.04-.37,0-.76.03-1.22.06.16,2.31.4,4.47.46,6.64.21,7.55.46,15.09.52,22.64.07,8.74-.31,17.48-1.16,26.18-.55,5.65-1.1,11.3-1.77,16.93-.73,6.1-1.87,12.13-3.55,18.03-1.23,4.32-2.67,8.59-5.6,12.13-.73.88-1.7,1.56-2.69,2.46-.18-.61-.28-.88-.34-1.16-1.4-5.96-2.04-12.02-2.39-18.11-.6-10.32-.24-20.64.95-30.88,1.47-12.68,3.45-25.3,5.24-37.94.11-.72-.07-1.13-.55-1.61-3.3-3.28-6.57-6.58-9.87-9.84-.29-.29-.8-.48-1.21-.51-2.31-.12-4.64-.16-6.96-.26-6.56-.27-13.12-.56-19.69-.83-5.29-.21-10.59-.42-15.88-.6-1.11-.04-2.22,0-3.36,0-2.29,12.36-3.93,24.71-4.82,37.49-.29-.55-.43-.79-.56-1.04-2.25-4.33-4.86-8.43-8.23-11.98-4.1-4.31-8.34-8.5-12.53-12.72-4.96-4.99-10.69-8.88-17.08-11.8-9.62-4.4-19.78-6.33-30.31-6.42-8.45-.08-16.87.44-25.25,1.56-6.27.84-12.44,2.12-18.52,3.85-3.21.92-3.2.95-3.28,4.29-.23,10.41-.46,20.84-.68,31.25-.23,10.49-.46,20.97-.66,31.46-.17,9.11-.3,18.22-.47,27.33-.07,3.81-.17,7.62-.25,11.43-.2,9.44-.42,18.86-.59,28.3,0,.44.22.99.53,1.31,3.14,3.23,6.33,6.4,9.46,9.64.68.7,1.43,1.04,2.36,1.12.8.06,1.59.19,2.39.2,6.38.18,12.75.44,19.13.46,7.81.02,15.55-.93,23.22-2.4,10.67-2.03,20.89-5.36,30.45-10.62,13.54-7.44,23.99-17.84,30.44-32.01,1.21-2.66,2.22-5.43,3.34-8.21.07.15.16.26.2.4,1.39,4.63,2.58,9.32,4.21,13.87,2.71,7.54,6.67,14.38,12.36,20.13,3.59,3.6,7.19,7.19,10.77,10.79,4.49,4.51,9.71,7.94,15.61,10.28,2.07.83,4.14,1.73,6.46,1.72,8.03-.02,16.05,0,24.07-.03.86,0,1.74-.15,2.55-.4,4.03-1.17,7.79-2.97,11.33-5.2,8.65-5.43,15.11-12.93,20.33-21.6,7.62-12.63,12.35-26.35,15.49-40.68.99-4.56,1.85-9.14,2.81-13.94,0,.56,0,.9,0,1.25-.07,3.81-.14,7.62-.23,11.43-.07,2.94-.15,5.88-.23,8.82-.29,10.41-.57,20.82-.85,31.23-.11,4.25-.22,8.49-.3,12.74,0,.34.15.78.39,1.03,3.23,3.33,6.52,6.62,9.76,9.96.58.6,1.19.81,2,.81,14.2-.06,28.41-.09,42.6-.13h1.08c1.19-19.39,2.36-38.62,3.55-58.06.2.3.28.38.32.48,5.68,14.75,11.36,29.49,17.05,44.23.17.46.39.96.73,1.3,3.37,3.41,6.75,6.8,10.16,10.18.29.28.81.48,1.21.46,2.93-.2,5.86-.44,8.78-.71,4.34-.4,8.65-.83,12.98-1.24,4.34-.4,8.67-.77,13-1.19,5.06-.48,10.11-1,15.16-1.47,1.91-.18,1.74.14,1.85-1.94.27-4.93.5-9.86.77-14.79.47-8.92.97-17.84,1.44-26.75.4-7.47.77-14.94,1.17-22.4.48-9.18.97-18.34,1.47-27.52.16-3.06.33-6.13.51-9.19.12.58.13,1.16.12,1.73-.21,10.13-.43,20.25-.63,30.38-.18,9.22-.32,18.44-.48,27.66-.07,3.74-.16,7.47-.24,11.21-.21,10.16-.42,20.32-.6,30.48,0,.44.2,1,.51,1.32,3.19,3.28,6.44,6.51,9.63,9.78.55.57,1.12.78,1.91.78,13.11-.05,26.22-.07,39.33-.1.31,0,.63-.04,1.01-.07.51-12.91,1-25.75,1.52-38.86,4.18,5.94,8.19,11.63,12.2,17.32,2.35,3.35,4.47,6.91,7.15,9.98,3.26,3.75,6.97,7.1,10.52,10.59.28.28.86.45,1.25.39,2.93-.47,5.84-1,8.77-1.53,8.8-1.59,17.61-3.19,26.41-4.78,3.41-.62,6.83-1.24,10.38-1.87-.29-.54-.52-.98-.77-1.41-13.05-22.77-26.1-45.53-39.17-68.29-.4-.69-.41-1.16.08-1.82,2.5-3.39,4.95-6.81,7.42-10.23,11.61-16.05,23.23-32.11,34.84-48.18.29-.41.55-.95.58-1.45.07-1.78.05-3.55,0-5.33ZM105.65,265.38c-3.21,7.28-7.68,13.69-13.4,19.27-5.94,5.81-12.71,10.39-20.16,14.02-7.84,3.82-16.04,6.6-24.62,8.12-5.12.91-10.28,1.75-15.46,2.17-6.03.48-12.09.61-18.14.64-3.98.02-7.95-.4-12.07-.63,0-.63,0-1.12,0-1.63.33-15.96.68-31.93,1.01-47.91.41-19.34.81-38.69,1.22-58.03.16-7.51.33-15.03.46-22.54,0-.78.25-1.12,1.02-1.34,8.09-2.41,16.36-3.86,24.76-4.67,7.09-.69,14.19-1.06,21.32-.85,12.34.36,24,3.23,34.52,9.88,12.86,8.14,20.93,19.83,24.1,34.59,3.6,16.7,2.36,33.12-4.58,48.91ZM237.07,210.71c-1.17,21.28-4.72,42.1-12.83,61.93-3.44,8.39-7.68,16.37-13.5,23.39-5.99,7.23-13.16,12.91-22.01,16.35-2.75,1.08-5.53,1.22-8.4,1.21-6.83-.04-13.66.12-20.48-.1-2.05-.07-4.12-1.01-6.09-1.79-5.39-2.14-10.1-5.39-14.21-9.44-4.36-4.3-7.66-9.35-10.22-14.91-4.4-9.58-6.86-19.7-8.17-30.12-1.92-15.34-1.87-30.7-.69-46.09.82-10.83,2.23-21.58,4.16-32.26.02-.14.07-.27.11-.49,14.41.55,28.8,1.11,43.19,1.66-.89,5.84-1.79,11.58-2.62,17.32-1.45,10.02-2.84,20.06-3.19,30.19-.23,6.82-.4,13.66-.15,20.47.29,7.94,1.12,15.87,3.9,23.41.73,1.99,1.77,3.91,2.96,5.66,2.79,4.12,7.89,4.56,11.48,1.1,2.62-2.53,4.14-5.75,5.39-9.1,2.23-5.93,3.54-12.11,4.51-18.34,3.21-20.51,4.2-41.15,3.45-61.88-.14-3.92-.37-7.83-.55-11.75-.03-.61,0-1.23,0-2h1.17c13.58,0,27.17.02,40.75-.02,1.04,0,1.34.32,1.4,1.33.77,11.42,1.28,22.84.64,34.28ZM373.87,302.89c-1.79.15-3.55.29-5.31.44-5.37.5-10.75,1.01-16.13,1.5-4.29.39-8.58.74-12.87,1.14-4.87.46-9.74.94-14.59,1.46-.71.07-.77-.35-.94-.77-1.63-4.23-3.26-8.47-4.89-12.69-7.24-18.78-14.49-37.56-21.72-56.33-.13-.34-.29-.68-.36-1.03-.19-.98-.87-1.3-1.74-1.3-.9,0-1.56.48-1.69,1.39-.15,1-.21,2.02-.28,3.04-.76,12.86-1.51,25.73-2.27,38.59-.57,9.79-1.16,19.57-1.74,29.35-.02.4-.08.79-.13,1.21h-41.46c1.17-45.98,2.34-91.95,3.5-138.01,2.25-.12,4.41-.24,6.58-.35,11.35-.54,22.71-1.07,34.06-1.61,1.89-.09,3.77-.15,5.66-.29.63-.05.95.1,1.24.7,10.07,20.99,20.17,41.97,30.26,62.96,1,2.09,2.01,4.18,3.01,6.28.45.94.97,1.75,2.18,1.57.98-.14,1.5-.97,1.54-2.44.16-6.79.3-13.58.46-20.36.35-14.7.7-29.4,1.06-44.1,0-.21.03-.43.07-.77,14.53-.49,28.96-.98,43.51-1.47-2.34,44.02-4.67,87.91-7.01,131.89ZM510.97,175.02c0,.32-.28.64-.49.94-13.87,19.16-27.75,38.31-41.62,57.48-.32.44-.65.87-.93,1.34-.49.83-.37,1.63.11,2.46,5.43,9.44,10.83,18.88,16.24,28.32,7.44,12.96,14.88,25.92,22.31,38.89.14.24.25.51.4.81-3.51.59-6.97,1.16-10.41,1.77-6.44,1.13-12.87,2.29-19.31,3.44-4.16.74-8.32,1.48-12.48,2.18-.31.05-.81-.23-1-.51-3.66-5.14-7.28-10.31-10.92-15.47-5.7-8.1-11.41-16.2-17.1-24.3-.29-.42-.57-.85-.81-1.29-.5-.94-1.27-1.23-2.27-1.06-1,.17-1.23.89-1.26,1.75-.11,2.68-.25,5.36-.34,8.05-.39,11.03-.77,22.06-1.15,33.08,0,.18-.02.36-.05.66h-38.05c1.02-48.78,2.04-97.5,3.06-146.31,14.33.8,28.55,1.59,42.92,2.4-.1,1.43-.18,2.79-.29,4.16-1.01,12.77-2.03,25.54-3.05,38.31-.02.25-.06.51-.02.76.09.81.37,1.49,1.24,1.74.86.25,1.51-.11,1.98-.78.75-1.07,1.45-2.17,2.16-3.27,9.2-14.18,18.4-28.37,27.58-42.56.38-.59.76-.79,1.47-.73,6.95.59,13.89,1.12,20.84,1.67,6.73.54,13.46,1.07,20.19,1.6.33.02.64.09,1.08.15,0,1.44.03,2.88-.02,4.33Z"/>
        <path class="cls-4" d="M214.65,131.31c.89-1.36,1.8-2.7,2.66-4.07,6.54-10.34,11.06-21.55,14.28-33.31,2.14-7.83,3.81-15.77,4.96-23.8,1.1-7.68,1.99-15.4,2.02-23.17.03-8.27-.14-16.54-.28-24.81-.03-1.99-.28-3.97-.43-6.06h-39.48c0,1.17-.03,2.32,0,3.46.2,7.11.54,14.22.58,21.33.03,6.02-.1,12.06-.48,18.07-.47,7.45-1.1,14.9-1.95,22.32-.92,8.03-2.3,15.99-4.57,23.77-1.28,4.37-2.92,8.57-5.84,12.17-2,2.46-4.5,3.99-7.71,4.09-3.44.11-6.02-1.47-8-4.22-2.65-3.68-3.92-7.88-4.82-12.24-2.35-11.33-2.86-22.79-2.21-34.31.35-6.26.71-12.53,1.37-18.77.71-6.74,1.76-13.44,2.7-20.15.47-3.37,1.04-6.73,1.56-10.09.03-.18,0-.36,0-.7-13.17-.52-26.32-1.04-39.56-1.56-.36,2.21-.77,4.31-1.04,6.42-.82,6.18-1.68,12.35-2.34,18.55-.48,4.5-.77,9.04-.97,13.56-.23,5.22-.43,10.45-.35,15.67.19,12.34,1,24.64,4.12,36.65,2.17,8.34,5.14,16.38,10.04,23.58.18.27.34.55.38.94-.27-.32-.56-.63-.82-.97-4.96-6.6-8.01-14.1-10.34-21.92-2.38-7.99-3.65-16.19-4.4-24.48-.74-13.05-1.04-22.92-.39-34.39.61-10.73,1.85-21.4,3.57-32.01.33-2,.68-4,1.04-6.1,14.43.56,28.82,1.11,43.27,1.67-.61,3.89-1.24,7.68-1.8,11.47-1.6,10.8-3.16,21.61-3.86,32.53-.51,8.01-.9,16.03-.38,24.05.51,7.9,1.17,15.8,3.93,23.31.74,2.02,1.81,3.97,3.02,5.75,2.73,4.02,7.76,4.48,11.33,1.15,2.22-2.07,3.63-4.69,4.8-7.45,2.4-5.68,3.69-11.67,4.8-17.7,1.77-9.58,2.57-19.27,3.32-28.97,1.16-15.1.84-30.18.13-45.28-.06-1.19-.14-2.38-.22-3.68h43.26c.11,1.34.25,2.66.33,4,.77,12.51,1.09,25.02.09,37.54-1.27,15.9-4.05,31.51-9.01,46.68-3.45,10.57-8.16,20.55-14.64,29.65-.48.68-1.01,1.33-1.51,1.99-.05-.05-.1-.09-.15-.14Z"/>
        <path class="cls-4" d="M6.92,145.45c-.7-.04-1.23-.08-1.85-.12,0-.47,0-.86,0-1.25.42-20.07.84-40.14,1.26-60.21.48-22.9.98-45.8,1.44-68.71.02-.78.29-1.04.99-1.25,7.98-2.4,16.15-3.84,24.44-4.66,7.23-.72,14.48-1.1,21.75-.87,12.76.39,24.77,3.45,35.51,10.58,12.3,8.16,20,19.66,23.06,33.97,3.56,16.66,2.32,33.05-4.59,48.81-1.9,4.33-4.29,8.4-7.13,12.19-.25.33-.52.65-.96.85.7-1.07,1.43-2.13,2.1-3.22,4.99-8.12,8.29-16.86,9.67-26.31.81-5.55,1.03-11.12.84-16.71-.39-11.29-3.44-21.77-9.73-31.23-4.84-7.29-11.22-12.86-18.95-16.91-7.79-4.08-16.08-6.5-24.86-7.25-6.5-.56-12.98-.38-19.47-.01-6.81.39-13.59,1.11-20.28,2.46-3.29.67-6.53,1.61-9.81,2.39-.72.17-.76.62-.77,1.19-.08,4.32-.17,8.64-.26,12.95-.3,14.12-.6,28.23-.9,42.35-.14,6.82-.29,13.64-.43,20.46-.29,14.08-.58,28.15-.87,42.23-.05,2.32-.09,4.65-.15,6.97,0,.39-.04.78-.07,1.3Z"/>
        <path class="cls-4" d="M261.11,120.53c-1.81-2.79-3.76-5.49-5.4-8.37-6.22-10.96-8.88-22.79-8.11-35.34.93-15.2,6.29-28.66,16.3-40.19,8.72-10.04,19.55-16.63,32.6-19.41,6.45-1.37,12.98-1.33,19.52-.76,8.25.72,16.14,2.78,23.56,6.51,14.25,7.15,23.66,18.55,28.09,33.7,5.56,18.99,4.15,37.54-5.44,55.13-1.66,3.04-3.72,5.86-5.6,8.79-.11-.07-.22-.14-.34-.21.81-1.25,1.63-2.49,2.44-3.74,4.42-6.84,7.33-14.31,8.96-22.24,1.31-6.35,1.42-12.81,1.03-19.29-.34-5.64-1.31-11.15-3.16-16.48-2.51-7.22-6.08-13.84-11.23-19.58-6-6.68-13.37-11.24-21.71-14.4-9.19-3.49-18.74-4.49-28.44-3.95-12.38.69-23.18,5.51-32.56,13.49-10.32,8.79-16.83,19.98-20.31,33.01-1.79,6.72-2.21,13.56-1.85,20.49.46,8.82,3.07,17,7.1,24.76,1.41,2.73,3.16,5.28,4.75,7.91-.07.06-.14.12-.21.18Z"/>
        <path class="cls-4" d="M51.47,47.61c-.26,4.15-.52,8.3-.79,12.45-.48,7.39-.96,14.78-1.44,22.17-.56,8.55-1.08,17.1-1.67,25.65-.24,3.39.42,4.04,3.73,3.22,13.66-3.37,21.76-12.36,25.33-25.6,2.3-8.53,1.75-17.04-1.64-25.29-.29-.7-.66-1.37-1.03-2.04-.36-.66-.76-1.29-1.15-1.93.09-.06.17-.12.26-.18.9,1.35,1.86,2.66,2.68,4.06,2.13,3.63,2.98,7.69,3.58,11.78,1.06,7.13.38,14.15-2.17,20.87-3.91,10.32-10.92,17.74-21.39,21.62-1.82.67-3.77,1.05-5.69,1.39-2.68.47-4.49-1.11-4.37-3.83.18-4.13.48-8.26.74-12.38.25-3.87.51-7.75.77-11.62.43-6.52.87-13.03,1.29-19.55.24-3.77.43-7.53.69-11.3.17-2.49.34-4.99.69-7.46.11-.78.82-1.47,1.26-2.21.11.06.22.12.33.17Z"/>
        <path class="cls-5" d="M291.22,65.71c-1.75,2.98-2.96,6.12-3.45,9.48-1.26,8.67.47,16.66,6.18,23.46,6.16,7.35,17.32,8.59,25.61,3.08,5.35-3.56,8.31-8.71,9.66-14.85,1.64-7.45.45-14.48-3.45-21.05-.13-.22-.24-.44-.36-.66,0-.01.04-.06.11-.16,1.71,1.97,3.05,4.15,3.96,6.55,1.9,5.02,2.71,10.21,2.01,15.57-1.01,7.68-4.17,14.17-10.71,18.63-5.27,3.59-11.14,4.53-17.35,3.24-6.91-1.43-11.43-5.89-14.51-11.91-2.82-5.51-3.87-11.46-3.24-17.61.49-4.78,1.87-9.3,4.95-13.14.14-.17.27-.34.42-.5.05-.05.12-.08.18-.12Z"/>
        <path class="cls-6" d="M337.36,172.47c14.53-.49,28.95-.98,43.51-1.47-2.34,44.02-4.67,87.91-7.01,131.88-1.8.15-3.56.29-5.31.45-5.38.49-10.75,1-16.13,1.49-4.29.39-8.58.74-12.87,1.14-4.87.46-9.73.94-14.59,1.46-.7.07-.77-.35-.93-.78-1.63-4.23-3.26-8.46-4.89-12.69-7.24-18.78-14.49-37.55-21.73-56.33-.13-.34-.29-.67-.36-1.02-.19-.98-.87-1.3-1.74-1.29-.9,0-1.55.48-1.69,1.39-.16,1-.21,2.02-.27,3.03-.76,12.86-1.51,25.73-2.27,38.6-.58,9.78-1.16,19.57-1.75,29.35-.02.39-.08.78-.13,1.2h-41.46c1.17-45.98,2.34-91.95,3.51-138.01,2.25-.12,4.41-.25,6.58-.35,11.35-.54,22.71-1.07,34.06-1.61,1.89-.09,3.77-.15,5.66-.29.63-.05.95.1,1.24.7,10.07,20.99,20.16,41.98,30.25,62.96,1.01,2.09,2.02,4.18,3.01,6.28.44.94.97,1.75,2.18,1.58.97-.14,1.5-.98,1.54-2.44.16-6.79.31-13.58.47-20.36.35-14.7.7-29.4,1.06-44.1,0-.21.04-.43.07-.77Z"/>
        <path class="cls-4" d="M380.87,171.01c-.08,1.59-.17,3.18-.25,4.76-14.23.49-28.32.96-42.52,1.44-.03.34-.07.55-.07.77-.35,14.7-.71,29.4-1.05,44.1-.16,6.79-.31,13.58-.47,20.36-.03,1.46-.56,2.3-1.53,2.44-1.21.17-1.74-.64-2.18-1.58-.99-2.09-2.01-4.18-3.01-6.27-10.09-20.98-20.18-41.97-30.25-62.96-.29-.6-.61-.74-1.24-.7-1.88.14-3.77.2-5.66.29-11.36.54-22.71,1.08-34.06,1.61-2.17.1-4.34.23-6.58.35-1.13,44.29-2.25,88.5-3.37,132.71,0,.19,0,.38-.01.57h-.86c.2-7.8,2.4-94.2,3.5-138.01,2.25-.12,4.41-.24,6.58-.35,11.35-.54,22.71-1.07,34.06-1.61,1.89-.09,3.77-.15,5.66-.29.63-.05.95.1,1.24.7,10.07,20.99,20.17,41.97,30.26,62.96,1,2.09,2.01,4.18,3.01,6.28.45.94.97,1.75,2.18,1.57.98-.14,1.5-.97,1.54-2.44.16-6.79.3-13.58.46-20.36.35-14.7.7-29.4,1.06-44.1,0-.21.03-.43.07-.77,14.53-.49,28.96-.98,43.51-1.47Z"/>
        <path class="cls-4" d="M323.18,307.25l-3.3-8.56c-7.24-18.77-14.49-37.55-21.73-56.33-.13-.33-.29-.67-.36-1.02-.19-.98-.86-1.3-1.74-1.3-.9,0-1.55.48-1.69,1.39-.15,1-.21,2.02-.27,3.03-.76,12.87-1.51,25.73-2.27,38.6-.5,8.43-1,16.86-1.51,25.29-.46-.23-.99-.45-.98-.68.59-9.78,1.17-19.56,1.74-29.35.76-12.87,1.51-25.73,2.27-38.59.07-1.02.12-2.04.28-3.04.14-.9.79-1.38,1.69-1.39.86,0,1.55.32,1.74,1.3.07.35.23.68.36,1.03,7.24,18.77,14.48,37.55,21.72,56.33,1.63,4.22,3.26,8.46,4.89,12.69.06.15-.33.37-.85.59Z"/>
        <path class="cls-4" d="M381.62,175.78c-2.25,42.37-4.5,84.76-6.75,127.09l-1,.05c2.24-42.2,4.5-84.87,6.75-127.1.33,0,.66-.02.99-.03Z"/>
        <path class="cls-6" d="M429.87,313.55h-38.04c1.02-48.78,2.04-97.5,3.06-146.31,14.33.8,28.56,1.59,42.92,2.39-.1,1.43-.18,2.8-.29,4.15-1.01,12.77-2.03,25.54-3.05,38.31-.02.25-.06.51-.03.76.09.8.38,1.49,1.24,1.74.86.25,1.51-.11,1.98-.78.75-1.07,1.45-2.17,2.16-3.27,9.2-14.18,18.4-28.37,27.58-42.56.38-.59.76-.79,1.48-.73,6.94.59,13.89,1.13,20.84,1.68,6.73.53,13.46,1.06,20.19,1.59.32.03.65.09,1.09.15,0,1.44.03,2.88-.02,4.32-.01.32-.28.65-.49.94-13.87,19.16-27.75,38.32-41.62,57.48-.32.44-.65.87-.93,1.34-.49.83-.38,1.63.1,2.46,5.43,9.43,10.83,18.88,16.24,28.31,7.44,12.96,14.87,25.92,22.31,38.88.14.25.25.51.4.82-3.52.59-6.97,1.16-10.42,1.76-6.44,1.13-12.87,2.29-19.31,3.44-4.16.74-8.32,1.49-12.49,2.18-.3.05-.8-.23-1-.51-3.66-5.14-7.29-10.31-10.92-15.47-5.7-8.1-11.4-16.2-17.1-24.3-.29-.41-.57-.84-.81-1.29-.5-.93-1.27-1.23-2.27-1.05-1,.17-1.23.89-1.26,1.75-.12,2.68-.25,5.37-.34,8.05-.39,11.03-.76,22.06-1.15,33.09,0,.18-.03.36-.05.66Z"/>
        <path class="cls-6" d="M113.43,216.48c-3.27-14.76-11.58-26.45-24.82-34.59-10.83-6.65-22.84-9.53-35.54-9.88-7.33-.21-14.65.15-21.95.85-8.65.81-17.16,2.26-25.5,4.67-.79.23-1.04.56-1.05,1.34-.13,7.51-.31,15.03-.48,22.54-.42,19.34-.84,38.69-1.26,58.03-.34,15.97-.7,31.94-1.04,47.91,0,.51,0,1,0,1.63,4.24.23,8.33.65,12.42.63,6.22-.02,12.47-.15,18.68-.64,5.33-.42,10.65-1.25,15.91-2.17,8.83-1.52,17.27-4.3,25.34-8.12,7.67-3.63,14.64-8.21,20.76-14.02,5.88-5.58,10.49-11.99,13.79-19.27,7.15-15.78,8.42-32.21,4.71-48.91ZM68.7,262.77c-5.29,6.56-12.11,10.78-20.65,12.22-1.8.3-2.67-.46-2.55-2.32.46-7.17.95-14.33,1.43-21.5.49-7.35.98-14.7,1.47-22.05.39-5.72.75-11.45,1.15-17.17.12-1.74.89-2.35,2.68-2.23,6.65.43,12.55,2.58,17.11,7.44,3.63,3.86,5.76,8.53,6.63,13.69.46,2.71.68,5.46.86,6.86-.08,10.11-2.53,18.12-8.12,25.07ZM6.87,296.29c-.65-.04-1.13-.07-1.71-.1,0-.41,0-.76,0-1.1.39-17.74.77-35.47,1.16-53.21.45-20.24.9-40.48,1.33-60.72.01-.69.27-.92.91-1.11,7.36-2.12,14.88-3.39,22.51-4.12,6.66-.63,13.34-.97,20.04-.77,11.76.35,22.82,3.05,32.71,9.35,11.33,7.21,18.42,17.37,21.24,30.02,3.28,14.72,2.14,29.21-4.23,43.13-1.75,3.83-3.95,7.42-6.57,10.77-.23.29-.48.57-.88.75.65-.95,1.31-1.88,1.93-2.85,4.6-7.18,7.64-14.9,8.91-23.25.74-4.9.95-9.83.77-14.77-.36-9.97-3.17-19.24-8.96-27.6-4.46-6.44-10.34-11.37-17.46-14.94-7.18-3.61-14.81-5.74-22.9-6.41-5.98-.5-11.96-.34-17.93-.01-6.28.34-12.52.98-18.68,2.18-3.04.59-6.02,1.43-9.03,2.11-.66.15-.7.55-.71,1.05-.07,3.82-.15,7.63-.24,11.45-.27,12.48-.55,24.95-.82,37.43-.13,6.03-.26,12.06-.39,18.08-.27,12.44-.53,24.88-.8,37.32-.04,2.05-.09,4.1-.13,6.16,0,.34-.04.69-.07,1.15Z"/>
        <path class="cls-6" d="M193.11,175.12c.45,0,.8,0,1.16,0,13.58,0,27.17.01,40.75-.02,1.04,0,1.33.31,1.4,1.33.76,11.42,1.28,22.84.64,34.28-1.18,21.28-4.72,42.09-12.84,61.93-3.43,8.39-7.68,16.37-13.5,23.39-5.99,7.23-13.16,12.9-22.01,16.35-2.75,1.07-5.53,1.22-8.41,1.2-6.83-.04-13.66.13-20.47-.1-2.05-.07-4.12-1.01-6.09-1.79-5.39-2.14-10.1-5.38-14.21-9.44-4.36-4.3-7.66-9.35-10.22-14.91-4.41-9.59-6.86-19.7-8.17-30.12-1.93-15.34-1.87-30.71-.7-46.09.82-10.83,2.24-21.58,4.17-32.26.02-.14.06-.27.11-.49,14.41.55,28.8,1.11,43.18,1.66-.89,5.85-1.79,11.58-2.62,17.32-1.45,10.02-2.84,20.06-3.18,30.19-.23,6.82-.4,13.65-.15,20.46.29,7.94,1.12,15.87,3.89,23.42.73,1.98,1.77,3.91,2.96,5.66,2.8,4.12,7.89,4.56,11.48,1.1,2.62-2.53,4.14-5.75,5.39-9.1,2.23-5.94,3.53-12.11,4.51-18.35,3.21-20.51,4.21-41.15,3.46-61.88-.14-3.92-.37-7.83-.55-11.75-.03-.61,0-1.23,0-2Z"/>
        <path class="cls-4" d="M210.95,293.89c.89-1.36,1.8-2.7,2.66-4.07,6.54-10.34,11.06-21.55,14.28-33.31,2.14-7.83,3.81-15.77,4.96-23.8,1.1-7.68,1.99-15.4,2.02-23.17.03-8.27-.14-16.54-.28-24.81-.03-1.99-.28-3.97-.43-6.06h-39.48c0,1.17-.03,2.32,0,3.46.2,7.11.54,14.22.58,21.33.03,6.02-.1,12.06-.48,18.07-.47,7.45-1.1,14.9-1.95,22.32-.92,8.03-2.3,15.99-4.57,23.77-1.28,4.37-2.92,8.57-5.84,12.17-2,2.46-4.5,3.99-7.71,4.09-3.44.11-6.02-1.47-8-4.22-2.65-3.68-3.92-7.88-4.82-12.24-2.35-11.33-2.86-22.79-2.21-34.31.35-6.26.71-12.53,1.37-18.77.71-6.74,1.76-13.44,2.7-20.15.47-3.37,1.04-6.73,1.56-10.09.03-.18,0-.36,0-.7-13.17-.52-26.32-1.04-39.56-1.56-.36,2.21-.77,4.31-1.04,6.42-.82,6.18-1.68,12.35-2.34,18.55-.48,4.5-.77,9.04-.97,13.56-.23,5.22-.43,10.45-.35,15.67.19,12.34,1,24.64,4.12,36.65,2.17,8.34,5.14,16.38,10.04,23.58.18.27.34.55.38.94-.27-.32-.56-.63-.82-.97-4.96-6.6-8.01-14.1-10.34-21.92-2.38-7.99-3.65-16.19-4.4-24.48-1.03-11.45-1.04-22.92-.39-34.39.61-10.73,1.85-21.4,3.57-32.01.33-2,.68-4,1.04-6.1,14.43.56,28.82,1.11,43.27,1.67-.61,3.89-1.24,7.68-1.8,11.47-1.6,10.8-3.16,21.61-3.86,32.53-.51,8.01-.9,16.03-.38,24.05.51,7.9,1.17,15.8,3.93,23.31.74,2.02,1.81,3.97,3.02,5.75,2.73,4.02,7.76,4.48,11.33,1.15,2.22-2.07,3.63-4.69,4.8-7.45,2.4-5.68,3.69-11.67,4.8-17.7,1.77-9.58,2.57-19.27,3.32-28.97,1.16-15.1.84-30.18.13-45.28-.06-1.19-.14-2.38-.22-3.68h43.26c.11,1.34.25,2.66.33,4,.77,12.51,1.09,25.02.09,37.54-1.27,15.9-4.05,31.51-9.01,46.68-3.45,10.57-8.16,20.55-14.64,29.65-.48.68-1.01,1.33-1.51,1.99-.05-.05-.1-.09-.15-.14Z"/>
        <path class="cls-4" d="M73.83,230.84c-.84-5.16-2.91-9.83-6.44-13.69-4.43-4.86-10.16-7.01-16.62-7.44-1.74-.12-2.49.49-2.61,2.23-.39,5.72-.74,11.45-1.12,17.17-.47,7.35-.95,14.7-1.43,22.05-.46,7.17-.94,14.33-1.39,21.5-.11,1.87.73,2.62,2.48,2.32,8.3-1.44,14.92-5.66,20.06-12.22,5.44-6.94,7.81-14.95,7.89-25.07-.17-1.4-.38-4.15-.83-6.86ZM70.59,252.2c-2.39,6.5-6.29,11.87-11.94,15.94-.17.12-.36.23-.78.49.12-2.06.21-3.9.33-5.73.66-10.07,1.33-20.14,2-30.2.2-3.08.46-6.15.65-9.22.04-.66.25-.91.91-.87,2.66.15,5.25.63,7.7,1.68.34.15.64.58.79.95,1.29,3.1,1.96,6.33,2.28,9.66.58,5.92.11,11.7-1.95,17.32Z"/>
      </g>
    </g>
  </g>
  <path class="cls-3" d="M172.6,14.72l11.18,10.66s-5.67,37.01-6.33,53.9c-.66,16.9,2.83,35.35,2.83,35.35,0,0-8.1,6.07-13.43-18.46-4.64-21.38,1.5-72.04,5.74-81.46Z"/>
  <path class="cls-3" d="M72.64,60.5c-.3-.12-6.76-2.77-8.74-.92l-3.03,47.76s-13.61,7.94-13.31,2.27l3.92-61.99s10.5-4.38,21.17,12.88Z"/>
  <path class="cls-4" d="M437.72,170.89c-13.58-.76-27.04-1.51-40.6-2.27-1.01,48.35-2.02,96.61-3.02,144.92h-2.27c1.02-48.78,2.04-97.5,3.06-146.31,14.33.8,28.55,1.59,42.92,2.4-.03.42-.06.84-.09,1.25Z"/>
  <path class="cls-4" d="M511,170.69v1.14c-6.34-.51-12.7-1-19.04-1.51-6.95-.55-13.9-1.08-20.84-1.68-.73-.06-1.09.14-1.48.73-9.18,14.19-18.38,28.38-27.57,42.56-.71,1.1-1.42,2.2-2.17,3.27-.46.67-1.12,1.03-1.98.78-.73-.22-1.05-.75-1.18-1.4.37-.13.68-.41.93-.77.75-1.07,1.45-2.17,2.16-3.27,9.2-14.18,18.4-28.37,27.58-42.56.38-.59.76-.79,1.47-.73,6.95.59,13.89,1.12,20.84,1.67,6.73.54,13.46,1.07,20.19,1.6.33.02.64.09,1.08.15Z"/>
  <path class="cls-4" d="M437.72,170.89c.77.04,1.55.09,2.32.13-.1,1.43-.18,2.79-.29,4.16-1.01,12.77-2.03,25.54-3.05,38.31-.02.25-.06.51-.03.76.02.11.03.24.06.34-.31.11-.66.13-1.05.02-.86-.25-1.15-.94-1.24-1.74-.03-.24,0-.51.02-.76,1.02-12.77,2.04-25.54,3.05-38.31.08-.96.15-1.91.2-2.9Z"/>
  <path class="cls-4" d="M513.22,176.39c0,.33-.29.65-.49.95-13.87,19.16-27.75,38.31-41.62,57.48-.32.44-.65.87-.93,1.34-.49.83-.37,1.63.11,2.46,5.42,9.44,10.83,18.88,16.24,28.32,7.43,12.96,14.19,25.08,21.63,38.05,0,0-1.05.45-1.16.27-7.43-12.96-15.27-26.74-22.71-39.7-5.41-9.44-10.81-18.88-16.24-28.32-.48-.83-.59-1.63-.11-2.46.28-.46.61-.9.93-1.34,13.88-19.17,27.75-38.32,41.62-57.48.21-.29.48-.62.49-.94.04-1.06.03-2.13.02-3.19.38.02.77.06,1.15.09.33.02.65.09,1.09.15,0,1.44.03,2.88-.02,4.32Z"/>
  <path class="cls-1" d="M126.14,14.72c-.08.66-1.93,12.57-2.72,18.64-.07.51-.12,1.03-.18,1.55-.02.14-.03.28-.05.42-.1.94-.2,1.88-.29,2.82-.09.86-.18,1.73-.26,2.59-.14,1.38-.28,2.75-.42,4.13-.07.77-.15,1.55-.24,2.32-.11,1.09-.2,2.19-.29,3.29-.43-.3-.65-.65-.82-1.03-2.29-4.95-5.66-9.04-9.4-12.83,3.98,7.56,8.49,20.84,8.34,36.49-.06,5.72,2.96,10.97,4.15,16.54h0c-.08-.8-.16-1.6-.24-2.4-.15-1.6-.27-3.2-.37-4.8-.11-1.61-.2-3.2-.26-4.8-.03-.81-.07-1.61-.09-2.4-.02-.35-.02-.7-.02-1.04-.02-.54-.03-1.08-.04-1.61-.02-.83-.02-1.65-.03-2.49,0,0,0,0,0-.02t0-.02s0,0,0-.02v-.02s0,0,0-.02t0-.02s0,0,0-.02c0,0,0,0,0-.02t0-.02s0,0,0-.02t0-.02h0s0-.02,0-.02h0s0-.02,0-.02t0-.02c-.02-1.08-.02-2.17,0-3.25h0s0-.02,0-.02h0v-.03s0,0,0-.02c0,0,0,0,0-.02t0-.02h0v-.02s0,0,0-.02h0v-.02s0,0,0-.02c0,0,0,0,0-.02h0s0-.02,0-.02h0v-.02s0-.02,0-.03h0s0-.03,0-.04h0s0-.03,0-.05c0,0,0-.02,0-.02t0-.02v-.02c0-.16,0-.33,0-.49,0-.06,0-.11,0-.16t0,0s0,0,0-.02t0,0h0s0-.02,0-.02t0-.02s0,0,0-.02h0s0,0,0-.02c0,0,0-.02,0-.02h0s0-.02,0-.02t0-.02h0s0-.03,0-.05t0-.02c0-.42,0-.84.02-1.26,0-.42,0-.84.02-1.26.03-1.68.08-3.37.15-5.04.02-.55.04-1.09.07-1.65.05-1.08.1-2.15.16-3.23.07-1.31.15-2.62.25-3.92,0-.11.02-.22.02-.33.06-.82.11-1.64.19-2.45.04-.55.09-1.11.14-1.65.11-1.31.23-2.62.37-3.92.12-1.26.25-2.52.4-3.78.12-1.13.26-2.27.4-3.4.11-.93,2.72-17.74,2.84-18.66l-1.83-.04Z"/>
  <g>
    <path class="cls-3" d="M383.14,87.28c0-.31-.02-.62-.03-.93,0-.39-.02-.77-.05-1.17-.02-.44-.04-.89-.07-1.34,0-.13-.02-.27-.02-.41-.03-.47-.07-.95-.11-1.42v-.02s0-.1-.02-.15v-.02c-.05-.58-.11-1.16-.16-1.74-1.05-10.01-4.05-19.34-9.45-27.85-1.59-2.51-3.3-4.89-5.64-6.85-1.18-.99-2.34-2.02-3.43-3.12,12.19,12.06,18.37,52.66-6.6,83.96-5.91,7.4-27.98,16.98-46.19,14.98-22.37-2.45-47.81-7.7-61.25-48.24-2.22-8.4-2.55-15.5-2.51-16.15.07-1.08.15-2.15.27-3.21.04-.46.1-.92.15-1.38.07-.51.13-1.01.2-1.51v-.02c.36-4.54,1.67-7.15,3.26-13.12.73-2.75.48-6.1,1.49-8.69-.1-2.31-.37-9.04-.46-11.34-.06-1.21-.11-2.43-.15-3.64-.02-.4-.03-.8-.05-1.2-.15-3.6-.29-7.2-.42-10.8,0-.11,0-.2-.02-.3,0-.09-.02-.19-.05-.28-.02-.08-.03-.15-.06-.23-.1-.32-.25-.6-.47-.87-.08-.11-.18-.21-.29-.32-3.1-3.06-6.22-6.11-9.22-9.26-.68-.72-1.29-.94-2.21-.94h-.65c0,.63.02,1.26.03,1.89h.2c.32,8.91.27,17.8-.44,26.72-.06.7-.11,1.4-.18,2.1,0,.02,0,.03,0,.06,0,.02,0,.03,0,.05,0,.02,0,.03,0,.05,0,.02,0,.03,0,.05v.02c.02,2.1.02,4.21.02,6.32-.02,7.77-.91,15.49-2.01,23.17-1.15,8.04-2.82,15.97-4.96,23.81-3.22,11.77-7.74,22.97-14.28,33.31-.86,1.37-1.78,2.71-2.66,4.07t.02.02c-3.31,3.69-10.6,11.73-12.76,14.15-12.79.05-25.59.04-38.37.02-.63,0-1.31-.18-1.87-.46-4.34-2.21-8.24-5.02-11.67-8.47-2.97-2.99-5.89-6.03-8.95-8.93-2.17-2.06-5.09-6.38-7.73-10.67-.1-.5-5.88-13.84-6.14-14.73,0-.02,0-.02,0-.03-.13-.67-.24-1.34-.35-2.02,0,0,0,0,0-.02h0c-.29-.91-.58-1.83-.86-2.75-.56-1.88-1.06-3.76-1.5-5.66-.42-4.12.04-28.1-.4-32.78-.95-10.1-2.75-.6-3.35-2.48-1.04,2.6-1.65,43.38-6.98,51.88-8.35,13.35-12.05,15.69-25.76,23.2-9.61,5.26-19.89,8.6-30.62,10.64-7.73,1.47-15.54,2.22-23.41,2.49-7.26.25-14.48-.18-21.71-.75-.89-.07-1.63-.36-2.3-1.05-.94-.98-1.89-1.94-2.84-2.91-.03,1.39-.06,2.78-.09,4.16,0,.38-.04.77-.07,1.3-.7-.05-1.23-.08-1.85-.12v-.86c0-1.02.06-1.88.56-3.79-.16-.63-.31-1.18-.46-1.75-.1-.38-.2-.77-.31-1.19-.46-.48-.94-.95-1.41-1.43-.07,3.24-.13,6.47-.19,9.71,0,.44.22.99.52,1.31,3.09,3.18,6.24,6.3,9.31,9.48.67.68,1.4.98,2.28,1.04,7.16.57,14.32.99,21.52.74,7.81-.27,15.55-1,23.22-2.46,10.63-2.02,20.83-5.33,30.35-10.55,13.59-7.44,24.07-17.85,30.53-32.06,1.27-2.79,2.31-5.7,3.34-8.27,1.48,4.67,2.89,9.65,4.64,14.5,3.02,8.37,7.62,15.77,14.11,21.94,3.02,2.88,5.92,5.89,8.87,8.85,3.41,3.43,7.28,6.23,11.57,8.41.56.29,1.24.46,1.86.46,13.51.02,27.02.02,40.53-.03.96,0,2.01-.28,2.87-.73,7.18-3.73,13.06-9.03,17.98-15.38,7.46-9.64,12.59-20.5,16.39-32,1.61-4.88,2.92-9.87,4.34-14.77.02.05.04.11.06.17.07.19.15.4.18.64,1.13,11.47,6.61,24.86,14.07,34.03,15.25,18.71,32.63,23.33,45.56,24.18,6.62.43,21.43.05,27.8-1.67,22.11-6.01,36.51-20.31,44.16-41.64,2.91-8.12,3.99-16.45,3.79-24.92ZM126.16,103.72c-.06-.15-.1-.3-.13-.45.03.11.08.27.13.45ZM125.41,100.11c.02.1.04.2.06.29.07.37.13.74.2,1.11.1.55.21,1.08.32,1.63-.18-.52-.37-1.57-.58-3.03Z"/>
    <path class="cls-4" d="M122.91,69.78s0,.06,0,.08c0-.63,0-1.25,0-1.87,0-.46,0-.92,0-1.38h0s0-.02,0-.02h0v-.03s0,0,0-.02c0,0,0,0,0-.02t0-.02h0s0-.03,0-.04h0s0-.02,0-.02c0,0,0,0,0-.02,0,0,0-.02,0-.03h0s0-.03,0-.04h0s0-.03,0-.04h0s0-.03,0-.05c0,0,0-.02,0-.02t0-.02c0-.17,0-.33,0-.51,0-.06,0-.11,0-.16,0,0,0-.02,0-.03h0s0-.02,0-.02t0-.02s0,0,0-.02h0s0-.03,0-.04h0s0-.02,0-.02t0-.02h0s0-.03,0-.05t0-.02c0-.42,0-.84.02-1.26,0-.42,0-.84.02-1.26.03-1.68.08-3.37.15-5.04.02-.55.04-1.09.07-1.65.05-1.08.1-2.15.16-3.23.42-7.44,3.63-30.74,4.61-38.11l-1.74-.04c-.37,3.87-3.24,20.24-3.4,24.12-.24,5.26-.38,14.7-.29,19.98.06,3.66.17,7.32.38,10.97Z"/>
  </g>
  <path class="cls-7" d="M122.92,69.86s0-.05,0-.08c0-.59,0-1.19,0-1.79,0,.62,0,1.25,0,1.87Z"/>
  <path class="cls-7" d="M123.13,57.74c-.07,1.68-.12,3.37-.15,5.04.02-1.68.08-3.36.15-5.04Z"/>
  <path class="cls-4" d="M239.96,53.14c-1.27,15.9-4.05,31.5-9,46.68-3.45,10.57-8.16,20.55-14.64,29.64,0,.02-.03.04-.07.09-.2.24-.77.87-1.58,1.78t-.02-.02c.89-1.36,1.8-2.71,2.66-4.07,6.54-10.34,11.07-21.54,14.28-33.31,2.14-7.84,3.81-15.77,4.96-23.81,1.1-7.68,1.99-15.4,2.01-23.17,0-2.1,0-4.21-.02-6.32v-.02s0-.03,0-.05c0-.02,0-.03,0-.05,0-.02,0-.03,0-.05,0-.02,0-.04,0-.06,0-2.22-.04-4.43-.07-6.64-.02-1.94-.06-3.88-.09-5.82-.03-1.94-.07-3.88-.1-5.82-.03-1.99-.28-3.97-.43-6.06h-.67c-.02-1.49-.04-2.99-.07-4.48h2.41c.11,1.34.25,2.66.33,3.99.77,12.52,1.09,25.02.09,37.55Z"/>
  <path class="cls-2" d="M325.76,70.4c-.1-.14-.73-.6-1.04-.68-6.36-1.46-12.27-.5-17.4,3.72-5.42,4.44-7.47,10.43-7.59,17.23-.02,3.63.67,7.14,1.87,10.55.3.84.78,1.28,1.64,1.52,1.01.28,2.01.27,3.03.37-5.87-.52-11.03-3.22-14.57-7.51h0c-3.06-3.72-4.91-8.48-4.91-13.67,0-2.16.32-4.24.91-6.2,2.66-8.85,10.86-15.29,20.57-15.29,7.1,0,13.59,4.66,17.49,9.97Z"/>
  <polygon class="cls-4" points="122.05 53.5 122.51 70.74 122.95 72.03 124.28 57.74 122.05 53.5"/>
</svg>