<?xml version="1.0" encoding="UTF-8"?>
<svg id="Camada_1" data-name="Camada 1" xmlns="http://www.w3.org/2000/svg" viewBox="0 0 449.4 449.4">
  <defs>
    <style>
      .cls-1, .cls-2, .cls-3 {
        stroke-width: 0px;
      }

      .cls-2 {
        fill: #e90182;
      }

      .cls-3 {
        fill: #01ddf5;
      }
    </style>
  </defs>
  <circle class="cls-1" cx="224.7" cy="224.7" r="224.7"/>
  <path class="cls-2" d="M374.47,63.95C331.41,24.46,280.64,6.32,222.05,4.98c-.71-.02-1.25.63-1.09,1.32,22.75,106.15,34.02,213.55,33.83,322.16,0,.73.36,1.02,1.09.88l47.37-9.26c.88-.17,1.36-.73,1.42-1.63,2.01-30.76,10.55-59.53,25.62-86.3,15.27-27.08,36.21-57.8,48.71-89.47,8.29-20.96,9.47-42.58,3.59-64.84-1.65-6.25-3.18-9.34-8.13-13.89h0Z"/>
  <path class="cls-3" d="M199.17,330.97c.04.48.44.84.94.86,15.46.36,30.88-.29,46.26-1.96.63-.08.96-.44.96-1.07.56-108.65-10.59-216.03-33.43-322.18-.15-.73-.61-1.09-1.36-1.09-3.01,0-5.14.06-6.39.19-61.28,6.31-111.43,32.66-150.44,79.07-.61.73-.88,1.69-.73,2.63,3.62,23.55,12.08,45.38,25.33,65.48,23.65,35.84,60.85,62.94,87.28,98.23,17.7,23.65,28.23,50.25,31.57,79.84h0Z"/>
  <path class="cls-2" d="M443.74,235.6c2.82-56.21-15.75-110.66-52.01-153.6-.31-.36-.9-.08-.81.38,7.77,37.9-6.81,73.59-26.77,105.5-14.75,23.57-27.14,46.01-37.19,67.3-8.8,18.66-13.79,38.89-14.92,60.68-.04.75.31,1.04,1.04.82,49.5-14.21,92.17-39.62,128.02-76.23,1.48-1.5,2.53-2.53,2.65-4.85h0Z"/>
  <path class="cls-3" d="M191.87,330.28c-5.37-56.02-41.5-91.88-79.94-129.44-30.3-29.59-53.72-61.77-62.73-105.73-.21-1.04-.63-1.13-1.23-.27C13.12,143.81-.03,198.39,8.5,258.59c.25,1.69.96,3.09,2.17,4.2,48.2,44.84,115.19,66.61,180.32,68.43.65.02.94-.31.88-.94h0Z"/>
  <path class="cls-2" d="M372.93,385.61c37.94-34.96,63.08-82.83,69.18-134.21.13-1.04-.19-1.19-.94-.48-36.69,34.91-79.44,59.22-128.29,72.96-.52.15-.88.63-.86,1.19.81,35.86,17.32,59.82,55.31,61.79,2.68.13,4.55-.27,5.6-1.25h0Z"/>
  <path class="cls-3" d="M11.4,274.11c13.02,54.33,44.05,98.96,90.29,131.22,4.24,2.97,8.38,4.47,12.43,4.49,11.51.08,24.18-1.21,34.77-5.29,26.49-10.22,41.35-31.09,44.63-62.6.21-1.96-1.28-3.68-3.26-3.74-63.25-1.9-129.17-22.61-178.07-64.56-.36-.31-.9.02-.79.48h0Z"/>
  <path class="cls-2" d="M302.09,429.32l23.93-10.64c12.98-6.92,25.14-14.88,36.48-23.88.79-.63.69-1.02-.31-1.15-2.44-.36-4.83-.77-7.15-1.19-34.14-6.14-48.62-32.64-49.98-65.09-.04-.71-.4-.96-1.09-.79-16.05,4.24-32.32,7.38-48.79,9.4-.59.06-1.04.56-1.05,1.15-.31,35.21-3.87,70.08-10.7,104.58-.12.56.12.82.69.77,19.79-1.75,39.12-6.14,57.98-13.16h0Z"/>
  <path class="cls-3" d="M245.76,337.36l-44.82,1.96c-.61.04-.94.36-.96.98-1.73,37.42-19.7,61.58-53.93,72.51-7.25,2.32-15.59,3.22-23.65,3.76-1.46.1-1.53.5-.25,1.17,35.27,18.43,72.88,26.91,112.85,25.43.63-.02,1.02-.35,1.15-.98,6.81-34.21,10.39-68.77,10.76-103.7.02-.65-.52-1.17-1.15-1.13h0Z"/>
</svg>