<?xml version="1.0" standalone="no"?>
<!DOCTYPE svg PUBLIC "-//W3C//DTD SVG 20010904//EN"
 "http://www.w3.org/TR/2001/REC-SVG-20010904/DTD/svg10.dtd">
<svg version="1.0" xmlns="http://www.w3.org/2000/svg"
 width="128.000000pt" height="128.000000pt" viewBox="0 0 128.000000 128.000000"
 preserveAspectRatio="xMidYMid meet">

<g transform="translate(0.000000,128.000000) scale(0.100000,-0.100000)"
fill="#000000" stroke="none">
<path d="M504 1265 c-193 -42 -331 -181 -391 -395 -25 -93 -25 -367 0 -460 32
-113 75 -190 146 -261 101 -101 226 -149 386 -149 160 0 285 48 381 146 76 76
104 142 104 243 0 120 -43 204 -138 268 -68 46 -72 50 -72 88 0 46 -53 149
-92 179 -73 55 -188 72 -280 40 -48 -16 -128 -77 -128 -97 0 -7 19 -24 42 -39
l42 -27 33 29 c77 68 215 44 257 -44 26 -55 23 -58 -46 -51 -73 8 -175 -8
-227 -35 -136 -70 -160 -238 -48 -337 46 -40 97 -57 173 -57 129 1 224 73 260
198 l18 64 27 -19 c61 -43 88 -165 55 -244 -22 -52 -92 -122 -151 -150 -78
-36 -186 -50 -283 -36 -247 37 -372 212 -372 521 0 308 125 483 369 521 55 8
94 8 155 -1 178 -26 291 -121 350 -293 6 -19 36 -18 93 4 l23 8 -21 53 c-71
182 -200 294 -384 333 -85 18 -199 18 -281 0z m300 -690 c-1 -54 -31 -113 -68
-137 -25 -15 -45 -18 -100 -16 -62 3 -71 7 -97 36 -32 35 -35 57 -17 98 21 46
78 64 188 61 l95 -2 -1 -40z"/>
</g>
</svg>
